<svg width="831" height="116" viewBox="0 0 831 116" fill="none" xmlns="http://www.w3.org/2000/svg">
<path d="M726.212 65.8196L746.168 81.896C746.964 82.7012 747.959 83.2839 749.048 83.5862C749.894 83.8608 750.798 83.9025 751.662 83.7072C752.647 83.583 753.588 83.2336 754.415 82.6863C755.242 82.1384 755.934 81.4071 756.436 80.548C762.657 70.4415 768.874 60.3363 775.086 50.2334L780.385 41.6241C781.258 40.0857 781.493 38.2652 781.045 36.5533C780.701 35.3051 780.005 34.1862 779.033 33.3364C778.061 32.4865 776.867 31.9434 775.592 31.7748C774.317 31.6062 773.02 31.8198 771.867 32.3887C770.71 32.9576 769.747 33.8567 769.095 34.9736L750.445 65.3039L745.151 73.9396L755.419 72.6074L735.453 56.5101C734.187 55.3402 732.551 54.6578 730.837 54.583C729.105 54.5943 727.446 55.2858 726.212 56.5101C724.991 57.7467 724.304 59.4197 724.299 61.1651C724.367 62.7972 724.887 64.7507 726.212 65.8196Z" fill="url(#paint0_linear)"/>
<path d="M42.6803 92.2563C36.1095 92.2563 30.8046 90.9571 26.7657 88.3594C24.8366 87.2116 23.8721 85.5804 23.8721 83.4656C23.8721 82.2571 24.2036 81.2906 24.8667 80.5656C25.5299 79.7804 26.3437 79.3875 27.3082 79.3875C28.333 79.3875 29.7497 79.871 31.5581 80.8375C33.4872 81.7438 35.2354 82.4384 36.8028 82.9219C38.4304 83.4054 40.48 83.6469 42.9516 83.6469C45.4835 83.6469 47.4425 83.2241 48.8292 82.3781C50.276 81.5321 50.9994 80.354 50.9994 78.8438C50.9994 77.8165 50.6978 77.0009 50.0951 76.3969C49.5526 75.7929 48.5276 75.2491 47.0207 74.7656C45.5739 74.2219 43.3435 73.6179 40.3293 72.9531C34.9641 71.8656 31.106 70.325 28.755 68.3313C26.4642 66.3375 25.3189 63.5884 25.3189 60.0844C25.3189 57.4259 26.1025 55.0397 27.6699 52.925C29.2373 50.75 31.3773 49.0884 34.09 47.9406C36.863 46.7321 39.9978 46.1281 43.4942 46.1281C46.026 46.1281 48.4675 46.4603 50.8185 47.125C53.1696 47.729 55.2796 48.6353 57.1482 49.8438C59.0774 51.0522 60.0418 52.6531 60.0418 54.6469C60.0418 55.8554 59.7104 56.8821 59.0472 57.7281C58.3839 58.5134 57.5701 58.9063 56.6057 58.9063C55.9424 58.9063 55.2796 58.7853 54.6164 58.5438C54.0137 58.2415 53.2297 57.8188 52.2653 57.275C50.517 56.3688 49.01 55.704 47.7441 55.2813C46.4782 54.7978 44.9108 54.5563 43.042 54.5563C40.8116 54.5563 39.0332 55.0094 37.707 55.9156C36.4411 56.8219 35.8081 58.0603 35.8081 59.6313C35.8081 61.1415 36.4712 62.2897 37.7974 63.075C39.1236 63.8603 41.6857 64.646 45.4835 65.4313C49.5223 66.2772 52.6872 67.2438 54.9781 68.3313C57.269 69.4188 58.8966 70.7781 59.861 72.4094C60.8859 74.0406 61.3982 76.125 61.3982 78.6625C61.3982 82.771 59.6801 86.0634 56.244 88.5406C52.868 91.0179 48.3468 92.2563 42.6803 92.2563ZM94.706 92.2563C90.3055 92.2563 86.4172 91.3196 83.0413 89.4469C79.7258 87.5741 77.1637 84.9156 75.3552 81.4719C73.5467 78.0281 72.6425 74.0103 72.6425 69.4188C72.6425 64.8272 73.577 60.779 75.4456 57.275C77.3748 53.7103 80.0573 50.9616 83.4934 49.0281C86.9295 47.0946 90.8783 46.1281 95.339 46.1281C97.69 46.1281 100.041 46.4603 102.392 47.125C104.804 47.7897 106.913 48.696 108.722 49.8438C110.651 51.1125 111.615 52.7134 111.615 54.6469C111.615 55.9759 111.284 57.0634 110.621 57.9094C110.018 58.6946 109.204 59.0875 108.179 59.0875C107.516 59.0875 106.823 58.9366 106.099 58.6344C105.376 58.3321 104.653 57.9696 103.929 57.5469C102.603 56.7616 101.337 56.1571 100.131 55.7344C98.9261 55.2509 97.5395 55.0094 95.9719 55.0094C92.2347 55.0094 89.3411 56.2478 87.2912 58.725C85.3019 61.1415 84.3072 64.646 84.3072 69.2375C84.3072 73.7688 85.3019 77.2728 87.2912 79.75C89.3411 82.1665 92.2347 83.375 95.9719 83.375C97.4793 83.375 98.8054 83.1634 99.9506 82.7406C101.156 82.2571 102.482 81.6228 103.929 80.8375C104.834 80.2938 105.618 79.9009 106.28 79.6594C106.944 79.3571 107.607 79.2063 108.27 79.2063C109.234 79.2063 110.048 79.629 110.711 80.475C111.374 81.321 111.706 82.3781 111.706 83.6469C111.706 84.6741 111.465 85.5804 110.982 86.3656C110.561 87.0906 109.837 87.7554 108.812 88.3594C106.944 89.5679 104.773 90.5344 102.302 91.2594C99.8304 91.9241 97.2985 92.2563 94.706 92.2563ZM148.444 46.3094C150.011 46.1884 151.247 46.521 152.151 47.3063C153.055 48.0915 153.508 49.2696 153.508 50.8406C153.508 52.4719 153.116 53.6804 152.332 54.4656C151.548 55.2509 150.132 55.7647 148.082 56.0063L145.369 56.2781C141.813 56.6406 139.19 57.8491 137.503 59.9031C135.875 61.9571 135.061 64.525 135.061 67.6063V86.6375C135.061 88.3897 134.519 89.7491 133.433 90.7156C132.348 91.6219 130.992 92.075 129.364 92.075C127.737 92.075 126.38 91.6219 125.295 90.7156C124.27 89.7491 123.758 88.3897 123.758 86.6375V51.5656C123.758 49.8741 124.27 48.575 125.295 47.6688C126.38 46.7625 127.706 46.3094 129.274 46.3094C130.841 46.3094 132.107 46.7625 133.072 47.6688C134.036 48.5147 134.519 49.7531 134.519 51.3844V55.0094C135.664 52.3509 137.351 50.2969 139.582 48.8469C141.873 47.3969 144.405 46.5813 147.178 46.4L148.444 46.3094ZM197.006 79.3875C198.031 79.3875 198.845 79.7804 199.447 80.5656C200.111 81.3509 200.442 82.4085 200.442 83.7375C200.442 85.6103 199.327 87.1813 197.096 88.45C195.047 89.5978 192.726 90.5344 190.134 91.2594C187.542 91.9241 185.07 92.2563 182.719 92.2563C175.606 92.2563 169.969 90.2022 165.809 86.0938C161.65 81.9853 159.57 76.3665 159.57 69.2375C159.57 64.7063 160.474 60.6884 162.283 57.1844C164.091 53.6804 166.623 50.9616 169.878 49.0281C173.194 47.0946 176.932 46.1281 181.091 46.1281C185.07 46.1281 188.536 47.004 191.49 48.7563C194.444 50.5085 196.735 52.9853 198.362 56.1875C199.99 59.3897 200.804 63.1656 200.804 67.5156C200.804 70.1134 199.658 71.4125 197.368 71.4125H170.692C171.054 75.5813 172.23 78.6625 174.219 80.6563C176.208 82.5897 179.102 83.5563 182.9 83.5563C184.829 83.5563 186.517 83.3147 187.963 82.8313C189.47 82.3478 191.159 81.6835 193.027 80.8375C194.836 79.871 196.162 79.3875 197.006 79.3875ZM181.362 54.1031C178.288 54.1031 175.816 55.0696 173.948 57.0031C172.139 58.9366 171.054 61.7156 170.692 65.3406H191.128C191.008 61.6554 190.103 58.8759 188.415 57.0031C186.728 55.0696 184.377 54.1031 181.362 54.1031ZM249.565 79.3875C250.59 79.3875 251.404 79.7804 252.006 80.5656C252.67 81.3509 253.001 82.4085 253.001 83.7375C253.001 85.6103 251.886 87.1813 249.655 88.45C247.606 89.5978 245.285 90.5344 242.693 91.2594C240.101 91.9241 237.629 92.2563 235.278 92.2563C228.165 92.2563 222.528 90.2022 218.369 86.0938C214.209 81.9853 212.129 76.3665 212.129 69.2375C212.129 64.7063 213.034 60.6884 214.842 57.1844C216.651 53.6804 219.182 50.9616 222.438 49.0281C225.753 47.0946 229.491 46.1281 233.65 46.1281C237.629 46.1281 241.095 47.004 244.049 48.7563C247.003 50.5085 249.294 52.9853 250.921 56.1875C252.549 59.3897 253.363 63.1656 253.363 67.5156C253.363 70.1134 252.218 71.4125 249.927 71.4125H223.251C223.613 75.5813 224.789 78.6625 226.778 80.6563C228.767 82.5897 231.661 83.5563 235.459 83.5563C237.388 83.5563 239.076 83.3147 240.523 82.8313C242.029 82.3478 243.718 81.6835 245.586 80.8375C247.395 79.871 248.721 79.3875 249.565 79.3875ZM233.922 54.1031C230.847 54.1031 228.375 55.0696 226.507 57.0031C224.698 58.9366 223.613 61.7156 223.251 65.3406H243.687C243.567 61.6554 242.662 58.8759 240.975 57.0031C239.287 55.0696 236.936 54.1031 233.922 54.1031ZM292.81 46.1281C298.115 46.1281 302.064 47.6384 304.656 50.6594C307.248 53.6804 308.544 58.2415 308.544 64.3438V86.6375C308.544 88.329 308.032 89.6585 307.007 90.625C306.043 91.5915 304.686 92.075 302.938 92.075C301.19 92.075 299.803 91.5915 298.778 90.625C297.753 89.6585 297.241 88.329 297.241 86.6375V64.9781C297.241 61.5344 296.578 59.0272 295.252 57.4563C293.986 55.8853 291.966 55.1 289.193 55.1C285.938 55.1 283.316 56.1272 281.327 58.1812C279.397 60.2353 278.433 62.9844 278.433 66.4281V86.6375C278.433 88.329 277.921 89.6585 276.896 90.625C275.871 91.5915 274.485 92.075 272.736 92.075C270.988 92.075 269.602 91.5915 268.577 90.625C267.612 89.6585 267.13 88.329 267.13 86.6375V51.5656C267.13 49.9946 267.642 48.7259 268.667 47.7594C269.692 46.7929 271.078 46.3094 272.827 46.3094C274.394 46.3094 275.66 46.7929 276.624 47.7594C277.649 48.6656 278.162 49.8741 278.162 51.3844V53.8313C279.669 51.354 281.688 49.4509 284.22 48.1219C286.752 46.7929 289.615 46.1281 292.81 46.1281ZM340.551 92.2563C333.98 92.2563 328.675 90.9571 324.636 88.3594C322.707 87.2116 321.743 85.5804 321.743 83.4656C321.743 82.2571 322.074 81.2906 322.737 80.5656C323.401 79.7804 324.214 79.3875 325.179 79.3875C326.204 79.3875 327.62 79.871 329.429 80.8375C331.358 81.7438 333.106 82.4384 334.673 82.9219C336.301 83.4054 338.35 83.6469 340.822 83.6469C343.354 83.6469 345.313 83.2241 346.7 82.3781C348.147 81.5321 348.87 80.354 348.87 78.8438C348.87 77.8165 348.568 77.0009 347.966 76.3969C347.423 75.7929 346.398 75.2491 344.891 74.7656C343.444 74.2219 341.214 73.6179 338.2 72.9531C332.835 71.8656 328.977 70.325 326.626 68.3313C324.335 66.3375 323.189 63.5884 323.189 60.0844C323.189 57.4259 323.973 55.0397 325.54 52.925C327.108 50.75 329.248 49.0884 331.961 47.9406C334.733 46.7321 337.868 46.1281 341.365 46.1281C343.897 46.1281 346.338 46.4603 348.689 47.125C351.04 47.729 353.15 48.6353 355.019 49.8438C356.948 51.0522 357.912 52.6531 357.912 54.6469C357.912 55.8554 357.581 56.8821 356.918 57.7281C356.254 58.5134 355.441 58.9063 354.476 58.9063C353.813 58.9063 353.15 58.7853 352.487 58.5438C351.884 58.2415 351.1 57.8188 350.136 57.275C348.388 56.3688 346.881 55.704 345.615 55.2813C344.349 54.7978 342.781 54.5563 340.913 54.5563C338.682 54.5563 336.904 55.0094 335.578 55.9156C334.312 56.8219 333.679 58.0603 333.679 59.6313C333.679 61.1415 334.342 62.2897 335.668 63.075C336.994 63.8603 339.556 64.646 343.354 65.4313C347.393 66.2772 350.558 67.2438 352.849 68.3313C355.139 69.4188 356.767 70.7781 357.732 72.4094C358.756 74.0406 359.269 76.125 359.269 78.6625C359.269 82.771 357.551 86.0634 354.115 88.5406C350.739 91.0179 346.217 92.2563 340.551 92.2563ZM398.816 46.1281C409.185 46.1281 414.369 52.2 414.369 64.3438V86.6375C414.369 88.329 413.857 89.6585 412.832 90.625C411.867 91.5915 410.511 92.075 408.763 92.075C407.015 92.075 405.628 91.5915 404.603 90.625C403.578 89.6585 403.066 88.329 403.066 86.6375V64.3438C403.066 61.1415 402.403 58.8156 401.076 57.3656C399.811 55.8554 397.791 55.1 395.018 55.1C391.763 55.1 389.14 56.1272 387.151 58.1812C385.222 60.2353 384.258 62.9844 384.258 66.4281V86.6375C384.258 88.329 383.745 89.6585 382.72 90.625C381.696 91.5915 380.309 92.075 378.561 92.075C376.813 92.075 375.426 91.5915 374.401 90.625C373.437 89.6585 372.954 88.329 372.954 86.6375V32.4437C372.954 30.8729 373.467 29.6042 374.492 28.6375C375.577 27.6708 376.963 27.1875 378.651 27.1875C380.339 27.1875 381.696 27.6406 382.72 28.5469C383.745 29.4531 384.258 30.6917 384.258 32.2625V53.3781C385.765 51.0219 387.754 49.2397 390.226 48.0313C392.757 46.7625 395.621 46.1281 398.816 46.1281ZM450.535 92.2563C446.014 92.2563 442.036 91.3196 438.599 89.4469C435.223 87.5741 432.601 84.8853 430.732 81.3813C428.863 77.8772 427.929 73.7991 427.929 69.1469C427.929 64.4946 428.863 60.4469 430.732 57.0031C432.601 53.4991 435.223 50.8103 438.599 48.9375C442.036 47.0647 446.014 46.1281 450.535 46.1281C455.056 46.1281 459.003 47.0647 462.381 48.9375C465.817 50.8103 468.439 53.4991 470.247 57.0031C472.115 60.4469 473.051 64.4946 473.051 69.1469C473.051 73.7991 472.115 77.8772 470.247 81.3813C468.439 84.8853 465.817 87.5741 462.381 89.4469C459.003 91.3196 455.056 92.2563 450.535 92.2563ZM450.445 83.4656C454.12 83.4656 456.923 82.2571 458.854 79.8406C460.785 77.4241 461.748 73.8594 461.748 69.1469C461.748 64.4946 460.785 60.9603 458.854 58.5438C456.923 56.0665 454.152 54.8281 450.535 54.8281C446.918 54.8281 444.115 56.0665 442.126 58.5438C440.197 60.9603 439.232 64.4946 439.232 69.1469C439.232 73.8594 440.197 77.4241 442.126 79.8406C444.055 82.2571 446.828 83.4656 450.445 83.4656ZM509.605 83.6469C512.62 83.8281 514.126 85.1875 514.126 87.725C514.126 89.175 513.525 90.2929 512.317 91.0781C511.174 91.8031 509.514 92.1054 507.344 91.9844L504.903 91.8031C494.775 91.0781 489.711 85.6406 489.711 75.4906V55.7344H485.19C483.562 55.7344 482.297 55.3719 481.392 54.6469C480.551 53.9219 480.126 52.8647 480.126 51.475C480.126 50.0853 480.551 49.0281 481.392 48.3031C482.297 47.5781 483.562 47.2156 485.19 47.2156H489.711V38.8781C489.711 37.2469 490.227 35.9479 491.249 34.9812C492.275 34.0146 493.663 33.5313 495.408 33.5313C497.099 33.5313 498.455 34.0146 499.477 34.9812C500.503 35.9479 501.014 37.2469 501.014 38.8781V47.2156H508.7C510.328 47.2156 511.567 47.5781 512.408 48.3031C513.312 49.0281 513.764 50.0853 513.764 51.475C513.764 52.8647 513.312 53.9219 512.408 54.6469C511.567 55.3719 510.328 55.7344 508.7 55.7344H501.014V76.3063C501.014 80.7772 503.067 83.1634 507.163 83.4656L509.605 83.6469Z" fill="white"/>
<path d="M549.947 46.1281C553.808 46.1281 557.213 47.0647 560.165 48.9375C563.122 50.8103 565.41 53.4688 567.038 56.9125C568.728 60.3563 569.569 64.3741 569.569 68.9656C569.569 73.5571 568.728 77.6353 567.038 81.2C565.41 84.704 563.09 87.4228 560.075 89.3563C557.122 91.2897 553.745 92.2563 549.947 92.2563C546.755 92.2563 543.889 91.5616 541.357 90.1719C538.888 88.7821 536.99 86.8491 535.66 84.3719V86.6375C535.66 88.2688 535.149 89.5679 534.123 90.5344C533.101 91.5009 531.745 91.9844 530.054 91.9844C528.368 91.9844 527.011 91.5009 525.985 90.5344C525.022 89.5679 524.538 88.2688 524.538 86.6375V32.4437C524.538 30.8729 525.053 29.6042 526.075 28.6375C527.16 27.6708 528.548 27.1875 530.235 27.1875C531.926 27.1875 533.282 27.6406 534.304 28.5469C535.33 29.4531 535.841 30.6917 535.841 32.2625V53.65C537.17 51.2335 539.069 49.3906 541.538 48.1219C544.011 46.7929 546.814 46.1281 549.947 46.1281ZM546.963 83.4656C550.522 83.4656 553.293 82.1969 555.282 79.6594C557.272 77.1219 558.266 73.5571 558.266 68.9656C558.266 64.4344 557.272 60.9603 555.282 58.5438C553.356 56.1272 550.58 54.9188 546.963 54.9188C543.346 54.9188 540.543 56.1571 538.554 58.6344C536.628 61.0509 535.66 64.5554 535.66 69.1469C535.66 73.7384 536.628 77.2728 538.554 79.75C540.543 82.2272 543.346 83.4656 546.963 83.4656ZM603.533 92.2563C599.012 92.2563 595.033 91.3196 591.597 89.4469C588.219 87.5741 585.597 84.8853 583.73 81.3813C581.863 77.8772 580.927 73.7991 580.927 69.1469C580.927 64.4946 581.863 60.4469 583.73 57.0031C585.597 53.4991 588.219 50.8103 591.597 48.9375C595.033 47.0647 599.012 46.1281 603.533 46.1281C608.054 46.1281 612.001 47.0647 615.378 48.9375C618.814 50.8103 621.437 53.4991 623.245 57.0031C625.113 60.4469 626.048 64.4946 626.048 69.1469C626.048 73.7991 625.113 77.8772 623.245 81.3813C621.437 84.8853 618.814 87.5741 615.378 89.4469C612.001 91.3196 608.054 92.2563 603.533 92.2563ZM603.442 83.4656C607.118 83.4656 609.921 82.2571 611.852 79.8406C613.782 77.4241 614.745 73.8594 614.745 69.1469C614.745 64.4946 613.782 60.9603 611.852 58.5438C609.921 56.0665 607.15 54.8281 603.533 54.8281C599.916 54.8281 597.113 56.0665 595.123 58.5438C593.193 60.9603 592.23 64.4946 592.23 69.1469C592.23 73.8594 593.193 77.4241 595.123 79.8406C597.054 82.2571 599.825 83.4656 603.442 83.4656ZM662.602 83.6469C665.618 83.8281 667.124 85.1875 667.124 87.725C667.124 89.175 666.522 90.2929 665.315 91.0781C664.171 91.8031 662.512 92.1054 660.342 91.9844L657.9 91.8031C647.773 91.0781 642.709 85.6406 642.709 75.4906V55.7344H638.188C636.56 55.7344 635.294 55.3719 634.39 54.6469C633.549 53.9219 633.124 52.8647 633.124 51.475C633.124 50.0853 633.549 49.0281 634.39 48.3031C635.294 47.5781 636.56 47.2156 638.188 47.2156H642.709V38.8781C642.709 37.2469 643.225 35.9479 644.246 34.9812C645.273 34.0146 646.661 33.5313 648.406 33.5313C650.097 33.5313 651.453 34.0146 652.475 34.9812C653.501 35.9479 654.012 37.2469 654.012 38.8781V47.2156H661.698C663.326 47.2156 664.565 47.5781 665.406 48.3031C666.31 49.0281 666.762 50.0853 666.762 51.475C666.762 52.8647 666.31 53.9219 665.406 54.6469C664.565 55.3719 663.326 55.7344 661.698 55.7344H654.012V76.3063C654.012 80.7772 656.065 83.1634 660.161 83.4656L662.602 83.6469Z" fill="white"/>
<path d="M700.472 75.9359C700.4 80.1563 700.359 84.3753 700.35 88.5921C700.35 90.5274 700.35 92.4609 700.35 94.393C700.35 96.0623 700.296 97.747 700.4 99.4163C700.544 101.789 701.033 104.298 702.425 106.288C703.262 107.504 704.311 108.561 705.518 109.411C706.354 109.969 707.259 110.413 708.212 110.735C709.94 111.401 711.893 111.558 713.701 111.695C715.415 111.826 717.133 111.858 718.851 111.889C723.286 111.973 727.726 111.889 732.152 111.695C733.54 111.668 734.87 111.119 735.873 110.157C736.606 109.422 737.108 108.487 737.311 107.468C737.515 106.449 737.406 105.394 737.008 104.434C736.61 103.475 735.937 102.655 735.073 102.079C734.205 101.503 733.192 101.195 732.152 101.196C728.549 101.364 724.945 101.44 721.338 101.422C718.29 101.482 715.243 101.357 712.214 101.049L713.611 101.233C712.675 101.124 711.757 100.896 710.88 100.556L712.137 101.081C711.671 100.886 711.233 100.638 710.826 100.34L711.879 101.16C711.477 100.854 711.115 100.501 710.799 100.11L711.621 101.16C711.296 100.724 711.025 100.251 710.812 99.7526L711.337 101.007C711.083 100.357 710.907 99.681 710.812 98.9913L710.998 100.388C710.844 98.7176 710.799 97.0397 710.862 95.3641C710.862 93.3377 710.862 91.3131 710.862 89.2904C710.862 84.8389 710.903 80.3892 710.984 75.9413C711.029 73.1958 708.534 70.5659 705.726 70.6919C704.342 70.7186 703.022 71.2805 702.041 72.2588C701.06 73.2375 700.499 74.5575 700.472 75.9413V75.9359Z" fill="white"/>
<path d="M797.611 75.9419C797.683 80.3894 797.724 84.839 797.724 89.2901C797.724 91.2798 797.724 93.269 797.724 95.2582C797.787 96.9692 797.738 98.682 797.579 100.387L797.769 98.9906C797.67 99.6798 797.493 100.356 797.24 101.006L797.769 99.7514C797.552 100.251 797.276 100.723 796.946 101.158L797.774 100.108C797.457 100.501 797.091 100.854 796.684 101.158L797.747 100.34C797.34 100.637 796.892 100.885 796.426 101.079L797.697 100.555C796.806 100.895 795.879 101.123 794.93 101.232L796.345 101.048C793.284 101.356 790.205 101.481 787.126 101.421C783.473 101.442 779.825 101.367 776.185 101.195C773.404 101.064 770.746 103.699 770.873 106.444C770.9 107.827 771.469 109.146 772.459 110.125C773.45 111.103 774.788 111.665 776.185 111.693C780.204 111.877 784.228 111.956 788.252 111.908C789.993 111.908 791.742 111.851 793.488 111.772C795.504 111.736 797.507 111.488 799.469 111.032C801.648 110.473 803.615 109.301 805.134 107.656C806.649 106.012 807.648 103.968 808.005 101.772C808.584 97.967 808.344 94.0352 808.34 90.1932C808.34 85.4444 808.299 80.692 808.213 75.9365C808.191 74.549 807.635 73.2227 806.658 72.2254C805.654 71.2507 804.307 70.6993 802.896 70.6875C800.057 70.8135 797.53 72.9971 797.584 75.9365L797.611 75.9419Z" fill="white"/>
<path d="M711.012 41.8388C710.944 37.3416 710.903 32.8444 710.889 28.3472C710.889 26.334 710.889 24.3225 710.889 22.3127C710.826 20.583 710.871 18.851 711.03 17.1273L710.84 18.5391C710.935 17.8418 711.111 17.1581 711.364 16.501L710.84 17.7695C711.052 17.2634 711.323 16.7842 711.649 16.3418L710.826 17.4033C711.143 16.9981 711.504 16.6328 711.902 16.3152L710.853 17.1485C711.26 16.8483 711.699 16.5955 712.16 16.3949L710.908 16.9256C711.785 16.5864 712.702 16.3565 713.638 16.241L712.241 16.432C715.27 16.1205 718.313 15.9947 721.356 16.0552C724.959 16.034 728.558 16.11 732.157 16.2834C734.906 16.4108 737.533 13.7465 737.406 10.976C737.379 9.57727 736.814 8.24377 735.838 7.25455C734.861 6.26533 733.541 5.69698 732.157 5.66852C728.188 5.47744 724.214 5.40489 720.235 5.45088C718.517 5.45088 716.785 5.50399 715.067 5.5836C713.073 5.62149 711.093 5.87415 709.158 6.33724C707.006 6.89948 705.057 8.08386 703.561 9.74565C702.064 11.4074 701.074 13.4746 700.721 15.6943C700.147 19.5475 700.382 23.5228 700.391 27.4025C700.391 32.2111 700.432 37.0161 700.518 41.8176C700.54 43.2216 701.092 44.5642 702.055 45.5753C703.045 46.5618 704.374 47.1182 705.767 47.125C708.575 46.9977 711.07 44.7951 711.016 41.8176L711.012 41.8388Z" fill="white"/>
<path d="M806.445 42.293C806.517 38.026 806.563 33.7607 806.572 29.4972C806.572 27.5441 806.572 25.5857 806.572 23.6326C806.572 21.9449 806.621 20.2413 806.526 18.5589C806.377 16.1547 805.898 13.6179 804.519 11.6117C803.696 10.3724 802.665 9.29391 801.467 8.42735C800.64 7.86625 799.745 7.4167 798.804 7.08991C797.055 6.50193 795.228 6.17487 793.383 6.11868C791.692 5.9913 789.988 5.9595 788.292 5.92234C783.916 5.84449 779.535 5.90997 775.154 6.11868C773.784 6.14963 772.473 6.70443 771.482 7.67371C770.51 8.669 769.963 10.0187 769.963 11.426C769.963 12.8333 770.51 14.1829 771.482 15.1782C772.459 16.1736 773.779 16.7329 775.154 16.7332C778.716 16.5634 782.279 16.4891 785.842 16.5103C788.848 16.4473 791.86 16.5731 794.853 16.8871L793.474 16.6961C794.396 16.8091 795.305 17.039 796.173 17.3807L794.93 16.85C795.391 17.0479 795.82 17.299 796.223 17.5983L795.187 16.7704C795.581 17.0809 795.938 17.4371 796.25 17.8318L795.44 16.7704C795.761 17.2109 796.028 17.6883 796.241 18.1927L795.721 16.9243C795.974 17.58 796.146 18.2642 796.241 18.9623L796.06 17.5558C796.204 19.2425 796.25 20.9371 796.191 22.6296C796.191 24.6782 796.191 26.7268 796.191 28.7754C796.191 33.2724 796.15 37.7695 796.069 42.2665C796.028 45.0422 798.488 47.7009 801.259 47.5736C802.629 47.5491 803.936 46.9823 804.903 45.9922C805.875 45.0021 806.427 43.6664 806.454 42.2665L806.445 42.293Z" fill="white"/>
<path d="M726.212 65.8196L746.168 81.896C746.964 82.7012 747.959 83.2839 749.048 83.5862C749.894 83.8608 750.798 83.9025 751.662 83.7072C752.647 83.583 753.588 83.2336 754.415 82.6863C755.242 82.1384 755.934 81.4071 756.436 80.548C762.657 70.4415 768.874 60.3363 775.086 50.2334L780.385 41.6241C781.258 40.0857 781.493 38.2652 781.045 36.5533C780.701 35.3051 780.005 34.1862 779.033 33.3364C778.061 32.4865 776.867 31.9434 775.592 31.7748C774.317 31.6062 773.02 31.8198 771.867 32.3887C770.71 32.9576 769.747 33.8567 769.095 34.9736L750.445 65.3039L745.151 73.9396L755.419 72.6074L735.453 56.5101C734.187 55.3402 732.551 54.6578 730.837 54.583C729.105 54.5943 727.446 55.2858 726.212 56.5101C724.991 57.7467 724.304 59.4197 724.299 61.1651C724.367 62.7972 724.887 64.7507 726.212 65.8196Z" fill="url(#paint1_linear)"/>
<defs>
<linearGradient id="paint0_linear" x1="720.244" y1="72.8163" x2="765.498" y2="54.2887" gradientUnits="userSpaceOnUse">
<stop stop-color="#2025ED"/>
<stop offset="1" stop-color="#DF3387"/>
</linearGradient>
<linearGradient id="paint1_linear" x1="720.244" y1="72.8163" x2="765.498" y2="54.2887" gradientUnits="userSpaceOnUse">
<stop offset="0.520833" stop-color="white"/>
</linearGradient>
</defs>
</svg>
