<svg width="214" height="30" viewBox="0 0 214 30" fill="none" xmlns="http://www.w3.org/2000/svg">
<path d="M187.015 17.0223L192.154 21.18C192.359 21.3882 192.615 21.5389 192.896 21.6171C193.113 21.6881 193.346 21.6989 193.569 21.6484C193.823 21.6163 194.065 21.5259 194.278 21.3844C194.491 21.2427 194.669 21.0536 194.798 20.8314C196.4 18.2176 198.001 15.6042 199.601 12.9914L200.966 10.7649C201.19 10.367 201.251 9.89618 201.135 9.45343C201.047 9.13064 200.868 8.84127 200.617 8.62147C200.367 8.40169 200.06 8.26122 199.731 8.21762C199.403 8.17403 199.069 8.22926 198.772 8.37639C198.474 8.52352 198.226 8.75604 198.058 9.04488L193.255 16.8889L191.892 19.1223L194.536 18.7778L189.395 14.6147C189.069 14.3121 188.647 14.1356 188.206 14.1163C187.76 14.1192 187.333 14.298 187.015 14.6147C186.7 14.9345 186.524 15.3671 186.522 15.8186C186.54 16.2407 186.674 16.7459 187.015 17.0223Z" fill="url(#paint0_linear_1401_1104)"/>
<path d="M10.9911 23.8594C9.29898 23.8594 7.93285 23.5234 6.89274 22.8516C6.39597 22.5547 6.14758 22.1329 6.14758 21.5859C6.14758 21.2734 6.23296 21.0234 6.40373 20.8359C6.5745 20.6329 6.78408 20.5312 7.03246 20.5312C7.29637 20.5312 7.66118 20.6563 8.12691 20.9062C8.62368 21.1406 9.07388 21.3203 9.47751 21.4453C9.89666 21.5704 10.4245 21.6328 11.061 21.6328C11.713 21.6328 12.2175 21.5235 12.5746 21.3047C12.9471 21.0859 13.1334 20.7812 13.1334 20.3906C13.1334 20.125 13.0558 19.914 12.9006 19.7578C12.7609 19.6016 12.4969 19.461 12.1088 19.3359C11.7363 19.1953 11.1619 19.0391 10.3857 18.8672C9.00402 18.5859 8.01048 18.1875 7.40504 17.6719C6.81512 17.1562 6.52016 16.4453 6.52016 15.5391C6.52016 14.8515 6.72197 14.2344 7.1256 13.6875C7.52923 13.125 8.08034 12.6953 8.77892 12.3984C9.49303 12.0859 10.3003 11.9297 11.2007 11.9297C11.8527 11.9297 12.4814 12.0156 13.0869 12.1875C13.6923 12.3437 14.2357 12.5781 14.7169 12.8906C15.2137 13.2032 15.4621 13.6172 15.4621 14.1328C15.4621 14.4454 15.3767 14.7109 15.2059 14.9297C15.0351 15.1328 14.8255 15.2344 14.5772 15.2344C14.4064 15.2344 14.2357 15.2031 14.0649 15.1406C13.9097 15.0625 13.7078 14.9531 13.4594 14.8125C13.0092 14.5781 12.6211 14.4062 12.2951 14.2969C11.9691 14.1718 11.5655 14.1094 11.0843 14.1094C10.5099 14.1094 10.0519 14.2266 9.71037 14.4609C9.38436 14.6953 9.22136 15.0156 9.22136 15.4219C9.22136 15.8125 9.39213 16.1094 9.73365 16.3125C10.0752 16.5156 10.735 16.7188 11.713 16.9219C12.7531 17.1407 13.5681 17.3906 14.158 17.6719C14.748 17.9531 15.1671 18.3047 15.4155 18.7266C15.6794 19.1484 15.8113 19.6875 15.8113 20.3438C15.8113 21.4063 15.3689 22.2578 14.484 22.8984C13.6146 23.5391 12.4503 23.8594 10.9911 23.8594ZM24.3888 23.8594C23.2556 23.8594 22.2543 23.6171 21.3849 23.1328C20.5311 22.6485 19.8713 21.9609 19.4056 21.0703C18.9398 20.1797 18.707 19.1406 18.707 17.9531C18.707 16.7657 18.9476 15.7187 19.4289 14.8125C19.9257 13.8906 20.6164 13.1797 21.5013 12.6797C22.3862 12.1796 23.4031 11.9297 24.5518 11.9297C25.1572 11.9297 25.7627 12.0156 26.3681 12.1875C26.9892 12.3594 27.5324 12.5938 27.9982 12.8906C28.495 13.2187 28.7433 13.6328 28.7433 14.1328C28.7433 14.4765 28.658 14.7578 28.4872 14.9766C28.332 15.1796 28.1224 15.2812 27.8584 15.2812C27.6878 15.2812 27.5092 15.2422 27.3229 15.1641C27.1366 15.0859 26.9503 14.9921 26.764 14.8828C26.4225 14.6797 26.0965 14.5234 25.786 14.4141C25.4756 14.289 25.1185 14.2266 24.7148 14.2266C23.7524 14.2266 23.0072 14.5468 22.4793 15.1875C21.967 15.8125 21.7109 16.7188 21.7109 17.9062C21.7109 19.0781 21.967 19.9843 22.4793 20.625C23.0072 21.25 23.7524 21.5625 24.7148 21.5625C25.103 21.5625 25.4445 21.5078 25.7394 21.3984C26.0499 21.2734 26.3914 21.1093 26.764 20.9062C26.9969 20.7656 27.1987 20.664 27.3694 20.6016C27.5402 20.5234 27.711 20.4844 27.8817 20.4844C28.1302 20.4844 28.3398 20.5937 28.5105 20.8125C28.6813 21.0313 28.7666 21.3047 28.7666 21.6328C28.7666 21.8985 28.7045 22.1329 28.5803 22.3359C28.4717 22.5234 28.2854 22.6954 28.0214 22.8516C27.5402 23.1641 26.9814 23.4141 26.3448 23.6016C25.7084 23.7735 25.0564 23.8594 24.3888 23.8594ZM38.2274 11.9766C38.631 11.9453 38.9493 12.0313 39.1822 12.2344C39.415 12.4375 39.5315 12.7421 39.5315 13.1484C39.5315 13.5703 39.4305 13.8829 39.2287 14.0859C39.0268 14.289 38.6621 14.4219 38.1343 14.4844L37.4357 14.5547C36.5197 14.6484 35.8444 14.961 35.4098 15.4922C34.9907 16.0234 34.7811 16.6875 34.7811 17.4844V22.4062C34.7811 22.8594 34.6414 23.211 34.3619 23.4609C34.0825 23.6953 33.7332 23.8125 33.314 23.8125C32.8949 23.8125 32.5456 23.6953 32.2662 23.4609C32.0022 23.211 31.8703 22.8594 31.8703 22.4062V13.3359C31.8703 12.8985 32.0022 12.5625 32.2662 12.3281C32.5456 12.0937 32.8871 11.9766 33.2908 11.9766C33.6943 11.9766 34.0203 12.0937 34.2688 12.3281C34.5171 12.5469 34.6414 12.8672 34.6414 13.2891V14.2266C34.9363 13.539 35.3709 13.0078 35.9454 12.6328C36.5352 12.2578 37.1872 12.0469 37.9014 12L38.2274 11.9766ZM50.7332 20.5312C50.9971 20.5312 51.2067 20.6329 51.3619 20.8359C51.5327 21.039 51.618 21.3125 51.618 21.6562C51.618 22.1406 51.3308 22.5469 50.7564 22.875C50.2287 23.1718 49.6309 23.4141 48.9634 23.6016C48.2959 23.7735 47.6594 23.8594 47.0539 23.8594C45.2221 23.8594 43.7706 23.3282 42.6994 22.2656C41.6283 21.2031 41.0927 19.75 41.0927 17.9062C41.0927 16.7344 41.3255 15.6953 41.7913 14.7891C42.257 13.8829 42.909 13.1797 43.7473 12.6797C44.6011 12.1796 45.5636 11.9297 46.6348 11.9297C47.6594 11.9297 48.5521 12.1562 49.3127 12.6094C50.0733 13.0625 50.6633 13.7031 51.0824 14.5312C51.5016 15.3594 51.7112 16.3359 51.7112 17.4609C51.7112 18.1328 51.4163 18.4688 50.8263 18.4688H43.9569C44.05 19.5469 44.3527 20.3437 44.865 20.8594C45.3773 21.3594 46.1225 21.6094 47.1005 21.6094C47.5973 21.6094 48.032 21.5469 48.4045 21.4219C48.7926 21.2968 49.2274 21.125 49.7086 20.9062C50.1743 20.6563 50.5158 20.5312 50.7332 20.5312ZM46.7046 13.9922C45.9129 13.9922 45.2764 14.2421 44.7952 14.7422C44.3295 15.2422 44.05 15.9609 43.9569 16.8984H49.2196C49.1885 15.9454 48.9556 15.2265 48.521 14.7422C48.0863 14.2421 47.4809 13.9922 46.7046 13.9922ZM64.2682 20.5312C64.5322 20.5312 64.7418 20.6329 64.897 20.8359C65.0678 21.039 65.1531 21.3125 65.1531 21.6562C65.1531 22.1406 64.8659 22.5469 64.2915 22.875C63.7637 23.1718 63.166 23.4141 62.4985 23.6016C61.831 23.7735 61.1945 23.8594 60.589 23.8594C58.7572 23.8594 57.3057 23.3282 56.2345 22.2656C55.1633 21.2031 54.6278 19.75 54.6278 17.9062C54.6278 16.7344 54.8606 15.6953 55.3264 14.7891C55.7921 13.8829 56.4441 13.1797 57.2824 12.6797C58.1362 12.1796 59.0987 11.9297 60.1699 11.9297C61.1945 11.9297 62.0871 12.1562 62.8478 12.6094C63.6084 13.0625 64.1984 13.7031 64.6175 14.5312C65.0367 15.3594 65.2463 16.3359 65.2463 17.4609C65.2463 18.1328 64.9513 18.4688 64.3614 18.4688H57.492C57.5851 19.5469 57.8878 20.3437 58.4001 20.8594C58.9124 21.3594 59.6576 21.6094 60.6356 21.6094C61.1324 21.6094 61.567 21.5469 61.9396 21.4219C62.3277 21.2968 62.7624 21.125 63.2436 20.9062C63.7094 20.6563 64.0509 20.5312 64.2682 20.5312ZM60.2397 13.9922C59.448 13.9922 58.8115 14.2421 58.3303 14.7422C57.8645 15.2422 57.5851 15.9609 57.492 16.8984H62.7546C62.7236 15.9454 62.4907 15.2265 62.0561 14.7422C61.6214 14.2421 61.016 13.9922 60.2397 13.9922ZM75.4049 11.9297C76.7709 11.9297 77.7878 12.3203 78.4553 13.1016C79.1228 13.8829 79.4566 15.0625 79.4566 16.6406V22.4062C79.4566 22.8437 79.3247 23.1875 79.0608 23.4375C78.8124 23.6875 78.4631 23.8125 78.0129 23.8125C77.5627 23.8125 77.2057 23.6875 76.9417 23.4375C76.6778 23.1875 76.5459 22.8437 76.5459 22.4062V16.8047C76.5459 15.9141 76.3751 15.2657 76.0336 14.8594C75.7076 14.4531 75.1875 14.25 74.4734 14.25C73.6351 14.25 72.9598 14.5157 72.4475 15.0469C71.9507 15.5781 71.7024 16.2891 71.7024 17.1797V22.4062C71.7024 22.8437 71.5704 23.1875 71.3065 23.4375C71.0425 23.6875 70.6856 23.8125 70.2353 23.8125C69.7851 23.8125 69.4281 23.6875 69.1642 23.4375C68.9158 23.1875 68.7916 22.8437 68.7916 22.4062V13.3359C68.7916 12.9296 68.9235 12.6015 69.1874 12.3516C69.4514 12.1016 69.8084 11.9766 70.2586 11.9766C70.6623 11.9766 70.9883 12.1016 71.2366 12.3516C71.5006 12.5859 71.6325 12.8985 71.6325 13.2891V13.9219C72.0206 13.2812 72.5406 12.789 73.1927 12.4453C73.8447 12.1016 74.582 11.9297 75.4049 11.9297ZM87.699 23.8594C86.0069 23.8594 84.6407 23.5234 83.6007 22.8516C83.1038 22.5547 82.8555 22.1329 82.8555 21.5859C82.8555 21.2734 82.9408 21.0234 83.1116 20.8359C83.2824 20.6329 83.492 20.5312 83.7404 20.5312C84.0043 20.5312 84.3691 20.6563 84.8348 20.9062C85.3316 21.1406 85.7818 21.3203 86.1854 21.4453C86.6046 21.5704 87.1324 21.6328 87.7689 21.6328C88.4209 21.6328 88.9254 21.5235 89.2825 21.3047C89.6551 21.0859 89.8413 20.7812 89.8413 20.3906C89.8413 20.125 89.7637 19.914 89.6085 19.7578C89.4688 19.6016 89.2048 19.461 88.8168 19.3359C88.4442 19.1953 87.8698 19.0391 87.0936 18.8672C85.7119 18.5859 84.7184 18.1875 84.1129 17.6719C83.523 17.1562 83.2281 16.4453 83.2281 15.5391C83.2281 14.8515 83.4299 14.2344 83.8335 13.6875C84.2372 13.125 84.7883 12.6953 85.4868 12.3984C86.2009 12.0859 87.0082 11.9297 87.9086 11.9297C88.5606 11.9297 89.1893 12.0156 89.7948 12.1875C90.4002 12.3437 90.9436 12.5781 91.4248 12.8906C91.9216 13.2032 92.17 13.6172 92.17 14.1328C92.17 14.4454 92.0846 14.7109 91.9138 14.9297C91.743 15.1328 91.5334 15.2344 91.2851 15.2344C91.1143 15.2344 90.9436 15.2031 90.7728 15.1406C90.6176 15.0625 90.4157 14.9531 90.1674 14.8125C89.7171 14.5781 89.329 14.4062 89.003 14.2969C88.677 14.1718 88.2734 14.1094 87.7922 14.1094C87.2178 14.1094 86.7598 14.2266 86.4183 14.4609C86.0923 14.6953 85.9293 15.0156 85.9293 15.4219C85.9293 15.8125 86.1001 16.1094 86.4416 16.3125C86.7831 16.5156 87.4429 16.7188 88.4209 16.9219C89.461 17.1407 90.276 17.3906 90.8659 17.6719C91.4559 17.9531 91.8751 18.3047 92.1234 18.7266C92.3873 19.1484 92.5193 19.6875 92.5193 20.3438C92.5193 21.4063 92.0768 22.2578 91.1919 22.8984C90.3226 23.5391 89.1582 23.8594 87.699 23.8594ZM102.703 11.9297C105.374 11.9297 106.709 13.5 106.709 16.6406V22.4062C106.709 22.8437 106.577 23.1875 106.313 23.4375C106.064 23.6875 105.715 23.8125 105.265 23.8125C104.815 23.8125 104.458 23.6875 104.194 23.4375C103.93 23.1875 103.798 22.8437 103.798 22.4062V16.6406C103.798 15.8125 103.627 15.2109 103.286 14.8359C102.96 14.4454 102.44 14.25 101.725 14.25C100.887 14.25 100.212 14.5157 99.6995 15.0469C99.2029 15.5781 98.9544 16.2891 98.9544 17.1797V22.4062C98.9544 22.8437 98.8225 23.1875 98.5585 23.4375C98.2947 23.6875 97.9376 23.8125 97.4874 23.8125C97.0372 23.8125 96.6802 23.6875 96.4162 23.4375C96.1679 23.1875 96.0436 22.8437 96.0436 22.4062V8.39062C96.0436 7.98437 96.1757 7.65625 96.4395 7.40625C96.7189 7.15625 97.076 7.03125 97.5107 7.03125C97.9454 7.03125 98.2947 7.14844 98.5585 7.38281C98.8225 7.61719 98.9544 7.9375 98.9544 8.34375V13.8047C99.3426 13.1953 99.8549 12.7344 100.491 12.4219C101.143 12.0937 101.881 11.9297 102.703 11.9297ZM116.022 23.8594C114.858 23.8594 113.833 23.6171 112.949 23.1328C112.079 22.6485 111.404 21.9531 110.923 21.0469C110.441 20.1407 110.201 19.086 110.201 17.8828C110.201 16.6796 110.441 15.6328 110.923 14.7422C111.404 13.836 112.079 13.1406 112.949 12.6562C113.833 12.1719 114.858 11.9297 116.022 11.9297C117.187 11.9297 118.203 12.1719 119.073 12.6562C119.958 13.1406 120.633 13.836 121.099 14.7422C121.579 15.6328 121.82 16.6796 121.82 17.8828C121.82 19.086 121.579 20.1407 121.099 21.0469C120.633 21.9531 119.958 22.6485 119.073 23.1328C118.203 23.6171 117.187 23.8594 116.022 23.8594ZM115.999 21.5859C116.946 21.5859 117.667 21.2734 118.165 20.6484C118.662 20.0235 118.91 19.1016 118.91 17.8828C118.91 16.6796 118.662 15.7656 118.165 15.1406C117.667 14.5 116.954 14.1797 116.022 14.1797C115.091 14.1797 114.369 14.5 113.857 15.1406C113.36 15.7656 113.112 16.6796 113.112 17.8828C113.112 19.1016 113.36 20.0235 113.857 20.6484C114.353 21.2734 115.068 21.5859 115.999 21.5859ZM131.234 21.6328C132.011 21.6797 132.398 22.0312 132.398 22.6875C132.398 23.0625 132.243 23.3516 131.932 23.5547C131.638 23.7422 131.211 23.8204 130.652 23.7891L130.023 23.7422C127.415 23.5547 126.111 22.1484 126.111 19.5234V14.4141H124.947C124.528 14.4141 124.201 14.3203 123.969 14.1328C123.752 13.9453 123.643 13.6719 123.643 13.3125C123.643 12.9531 123.752 12.6797 123.969 12.4922C124.201 12.3047 124.528 12.2109 124.947 12.2109H126.111V10.0547C126.111 9.63281 126.244 9.29687 126.507 9.04687C126.771 8.79688 127.129 8.67187 127.578 8.67187C128.013 8.67187 128.363 8.79688 128.626 9.04687C128.89 9.29687 129.022 9.63281 129.022 10.0547V12.2109H131.001C131.42 12.2109 131.739 12.3047 131.956 12.4922C132.189 12.6797 132.305 12.9531 132.305 13.3125C132.305 13.6719 132.189 13.9453 131.956 14.1328C131.739 14.3203 131.42 14.4141 131.001 14.4141H129.022V19.7344C129.022 20.8907 129.55 21.5078 130.605 21.5859L131.234 21.6328Z" fill="black"/>
<path d="M141.623 11.9297C142.617 11.9297 143.494 12.1719 144.254 12.6562C145.016 13.1406 145.605 13.8281 146.024 14.7187C146.46 15.6094 146.676 16.6485 146.676 17.8359C146.676 19.0234 146.46 20.0781 146.024 21C145.605 21.9062 145.008 22.6093 144.231 23.1094C143.471 23.6094 142.601 23.8594 141.623 23.8594C140.801 23.8594 140.063 23.6797 139.411 23.3203C138.775 22.9609 138.286 22.461 137.944 21.8203V22.4062C137.944 22.8281 137.812 23.1641 137.548 23.4141C137.285 23.664 136.935 23.7891 136.5 23.7891C136.066 23.7891 135.716 23.664 135.452 23.4141C135.204 23.1641 135.08 22.8281 135.08 22.4062V8.39062C135.08 7.98437 135.212 7.65625 135.475 7.40625C135.755 7.15625 136.112 7.03125 136.547 7.03125C136.982 7.03125 137.331 7.14844 137.594 7.38281C137.859 7.61719 137.99 7.9375 137.99 8.34375V13.875C138.333 13.25 138.822 12.7734 139.457 12.4453C140.094 12.1016 140.816 11.9297 141.623 11.9297ZM140.855 21.5859C141.771 21.5859 142.485 21.2578 142.997 20.6016C143.509 19.9453 143.765 19.0234 143.765 17.8359C143.765 16.6641 143.509 15.7656 142.997 15.1406C142.501 14.5157 141.786 14.2031 140.855 14.2031C139.923 14.2031 139.201 14.5234 138.689 15.1641C138.193 15.789 137.944 16.6954 137.944 17.8828C137.944 19.0703 138.193 19.9843 138.689 20.625C139.201 21.2657 139.923 21.5859 140.855 21.5859ZM155.422 23.8594C154.258 23.8594 153.233 23.6171 152.349 23.1328C151.479 22.6485 150.804 21.9531 150.323 21.0469C149.842 20.1407 149.601 19.086 149.601 17.8828C149.601 16.6796 149.842 15.6328 150.323 14.7422C150.804 13.836 151.479 13.1406 152.349 12.6562C153.233 12.1719 154.258 11.9297 155.422 11.9297C156.587 11.9297 157.603 12.1719 158.473 12.6562C159.358 13.1406 160.033 13.836 160.499 14.7422C160.98 15.6328 161.221 16.6796 161.221 17.8828C161.221 19.086 160.98 20.1407 160.499 21.0469C160.033 21.9531 159.358 22.6485 158.473 23.1328C157.603 23.6171 156.587 23.8594 155.422 23.8594ZM155.399 21.5859C156.346 21.5859 157.068 21.2734 157.565 20.6484C158.062 20.0235 158.31 19.1016 158.31 17.8828C158.31 16.6796 158.062 15.7656 157.565 15.1406C157.068 14.5 156.354 14.1797 155.422 14.1797C154.491 14.1797 153.769 14.5 153.257 15.1406C152.76 15.7656 152.512 16.6796 152.512 17.8828C152.512 19.1016 152.76 20.0235 153.257 20.6484C153.754 21.2734 154.468 21.5859 155.399 21.5859ZM170.634 21.6328C171.411 21.6797 171.798 22.0312 171.798 22.6875C171.798 23.0625 171.644 23.3516 171.333 23.5547C171.038 23.7422 170.611 23.8204 170.052 23.7891L169.423 23.7422C166.815 23.5547 165.511 22.1484 165.511 19.5234V14.4141H164.347C163.928 14.4141 163.602 14.3203 163.369 14.1328C163.152 13.9453 163.043 13.6719 163.043 13.3125C163.043 12.9531 163.152 12.6797 163.369 12.4922C163.602 12.3047 163.928 12.2109 164.347 12.2109H165.511V10.0547C165.511 9.63281 165.644 9.29687 165.907 9.04687C166.171 8.79688 166.529 8.67187 166.978 8.67187C167.414 8.67187 167.763 8.79688 168.026 9.04687C168.29 9.29687 168.422 9.63281 168.422 10.0547V12.2109H170.401C170.82 12.2109 171.139 12.3047 171.356 12.4922C171.589 12.6797 171.705 12.9531 171.705 13.3125C171.705 13.6719 171.589 13.9453 171.356 14.1328C171.139 14.3203 170.82 14.4141 170.401 14.4141H168.422V19.7344C168.422 20.8907 168.95 21.5078 170.005 21.5859L170.634 21.6328Z" fill="#52AD77"/>
<path d="M180.386 19.6386C180.368 20.7301 180.357 21.8212 180.355 22.9118C180.355 23.4123 180.355 23.9123 180.355 24.412C180.355 24.8437 180.341 25.2794 180.368 25.7111C180.405 26.3248 180.531 26.9737 180.889 27.4883C181.105 27.8027 181.375 28.0762 181.686 28.296C181.901 28.4402 182.134 28.5551 182.38 28.6382C182.824 28.8106 183.327 28.8513 183.793 28.8867C184.234 28.9205 184.677 28.9287 185.119 28.9368C186.261 28.9586 187.405 28.9368 188.545 28.8867C188.902 28.8798 189.244 28.7377 189.503 28.4888C189.692 28.2989 189.821 28.0569 189.873 27.7934C189.926 27.53 189.898 27.2569 189.795 27.0089C189.693 26.7608 189.519 26.5488 189.297 26.3997C189.073 26.2507 188.812 26.1712 188.545 26.1714C187.617 26.2149 186.689 26.2344 185.76 26.2298C184.975 26.2453 184.19 26.213 183.41 26.1334L183.77 26.1809C183.529 26.1527 183.293 26.0939 183.067 26.0057L183.39 26.1416C183.27 26.0912 183.157 26.0269 183.053 25.9501L183.324 26.1619C183.22 26.0828 183.127 25.9917 183.046 25.8904L183.258 26.1619C183.174 26.0492 183.104 25.9271 183.049 25.7981L183.184 26.1226C183.119 25.9544 183.074 25.7796 183.049 25.6012L183.097 25.9624C183.057 25.5304 183.046 25.0965 183.062 24.6631C183.062 24.1391 183.062 23.6155 183.062 23.0923C183.062 21.9411 183.072 20.7903 183.093 19.64C183.105 18.93 182.462 18.2498 181.739 18.2824C181.383 18.2893 181.043 18.4346 180.79 18.6876C180.538 18.9407 180.393 19.2821 180.386 19.64V19.6386Z" fill="#221F20"/>
<path d="M205.402 19.6402C205.42 20.7903 205.431 21.9411 205.431 23.0923C205.431 23.6068 205.431 24.1213 205.431 24.6357C205.447 25.0782 205.434 25.5212 205.393 25.9621L205.442 25.601C205.417 25.7793 205.371 25.9541 205.306 26.1223L205.442 25.7978C205.387 25.9269 205.315 26.049 205.23 26.1616L205.444 25.8901C205.362 25.9917 205.268 26.0829 205.163 26.1616L205.437 25.9499C205.332 26.0268 205.217 26.091 205.097 26.1412L205.424 26.0055C205.194 26.0935 204.956 26.1524 204.711 26.1806L205.076 26.1332C204.287 26.2127 203.494 26.245 202.702 26.2295C201.761 26.235 200.821 26.2155 199.884 26.1711C199.168 26.1371 198.483 26.8187 198.516 27.5286C198.523 27.8864 198.67 28.2275 198.925 28.4805C199.18 28.7335 199.524 28.8789 199.884 28.8861C200.919 28.9337 201.955 28.9541 202.992 28.9418C203.44 28.9418 203.89 28.9269 204.34 28.9065C204.859 28.8973 205.375 28.8332 205.88 28.7151C206.441 28.5707 206.948 28.2674 207.339 27.8421C207.729 27.4168 207.986 26.8882 208.078 26.3204C208.227 25.3363 208.166 24.3194 208.165 23.3258C208.165 22.0977 208.154 20.8686 208.132 19.6387C208.126 19.2799 207.983 18.9369 207.731 18.679C207.473 18.4269 207.126 18.2843 206.763 18.2812C206.032 18.3138 205.381 18.8786 205.395 19.6387L205.402 19.6402Z" fill="#221F20"/>
<path d="M183.1 10.8204C183.083 9.65731 183.072 8.49425 183.069 7.33118C183.069 6.81051 183.069 6.29029 183.069 5.77053C183.053 5.3232 183.064 4.87525 183.105 4.42947L183.056 4.79459C183.081 4.61426 183.126 4.43744 183.191 4.2675L183.056 4.59556C183.111 4.46466 183.181 4.34074 183.265 4.22633L183.053 4.50085C183.134 4.39607 183.227 4.30159 183.33 4.21946L183.06 4.43497C183.164 4.35733 183.277 4.29195 183.396 4.24005L183.074 4.37731C183.299 4.28959 183.536 4.23013 183.777 4.20025L183.417 4.24966C184.197 4.1691 184.981 4.13656 185.764 4.1522C186.692 4.14672 187.619 4.16638 188.546 4.21123C189.254 4.24417 189.93 3.55512 189.898 2.83861C189.891 2.47688 189.745 2.13201 189.494 1.87618C189.242 1.62034 188.902 1.47336 188.546 1.466C187.524 1.41658 186.5 1.39782 185.476 1.40971C185.033 1.40971 184.587 1.42345 184.145 1.44404C183.631 1.45383 183.121 1.51918 182.623 1.63894C182.069 1.78435 181.567 2.09065 181.182 2.52043C180.796 2.9502 180.541 3.4848 180.45 4.05886C180.303 5.05539 180.363 6.08348 180.365 7.08686C180.365 8.33045 180.376 9.57312 180.398 10.8149C180.404 11.178 180.546 11.5252 180.794 11.7867C181.049 12.0418 181.391 12.1857 181.75 12.1875C182.473 12.1546 183.116 11.5849 183.102 10.8149L183.1 10.8204Z" fill="#221F20"/>
<path d="M207.677 10.9378C207.695 9.83431 207.707 8.73121 207.709 7.62858C207.709 7.12348 207.709 6.617 207.709 6.11189C207.709 5.67541 207.722 5.23482 207.698 4.79972C207.659 4.17794 207.536 3.52186 207.181 3.00303C206.969 2.68251 206.703 2.4036 206.395 2.17949C206.182 2.03437 205.951 1.91811 205.709 1.8336C205.258 1.68153 204.788 1.59695 204.313 1.58242C203.878 1.54948 203.439 1.54125 203.002 1.53164C201.875 1.51151 200.747 1.52844 199.618 1.58242C199.266 1.59042 198.928 1.73391 198.673 1.98458C198.423 2.24198 198.282 2.59104 198.282 2.95499C198.282 3.31895 198.423 3.668 198.673 3.92539C198.925 4.18282 199.265 4.32748 199.618 4.32756C200.536 4.28364 201.453 4.26442 202.371 4.26991C203.145 4.2536 203.921 4.28616 204.691 4.36737L204.336 4.31795C204.574 4.34718 204.808 4.40665 205.031 4.49501L204.711 4.35776C204.83 4.40893 204.941 4.47388 205.044 4.55129L204.778 4.33717C204.879 4.41746 204.971 4.50959 205.051 4.61168L204.843 4.33717C204.925 4.45109 204.994 4.57455 205.049 4.70502L204.915 4.37698C204.98 4.54655 205.024 4.7235 205.049 4.90404L205.002 4.5403C205.04 4.97652 205.051 5.41478 205.036 5.85248C205.036 6.38229 205.036 6.91211 205.036 7.44191C205.036 8.60494 205.026 9.76797 205.005 10.931C204.994 11.6488 205.627 12.3364 206.341 12.3035C206.694 12.2972 207.03 12.1506 207.28 11.8945C207.53 11.6385 207.672 11.293 207.679 10.931L207.677 10.9378Z" fill="#221F20"/>
<path d="M187.015 17.0223L192.154 21.18C192.359 21.3882 192.615 21.5389 192.896 21.6171C193.113 21.6881 193.346 21.6989 193.569 21.6484C193.823 21.6163 194.065 21.5259 194.278 21.3844C194.491 21.2427 194.669 21.0536 194.798 20.8314C196.4 18.2176 198.001 15.6042 199.601 12.9914L200.966 10.7649C201.19 10.367 201.251 9.89618 201.135 9.45343C201.047 9.13064 200.868 8.84127 200.617 8.62147C200.367 8.40169 200.06 8.26122 199.731 8.21762C199.403 8.17403 199.069 8.22926 198.772 8.37639C198.474 8.52352 198.226 8.75604 198.058 9.04488L193.255 16.8889L191.892 19.1223L194.536 18.7778L189.395 14.6147C189.069 14.3121 188.647 14.1356 188.206 14.1163C187.76 14.1192 187.333 14.298 187.015 14.6147C186.7 14.9345 186.524 15.3671 186.522 15.8186C186.54 16.2407 186.674 16.7459 187.015 17.0223Z" fill="url(#paint1_linear_1401_1104)"/>
<defs>
<linearGradient id="paint0_linear_1401_1104" x1="185.478" y1="18.8318" x2="197.146" y2="14.0751" gradientUnits="userSpaceOnUse">
<stop stop-color="#2025ED"/>
<stop offset="1" stop-color="#DF3387"/>
</linearGradient>
<linearGradient id="paint1_linear_1401_1104" x1="185.478" y1="18.8318" x2="197.146" y2="14.0751" gradientUnits="userSpaceOnUse">
<stop offset="0.520833" stop-color="#6ACAAE"/>
<stop offset="1" stop-color="#52AD77"/>
</linearGradient>
</defs>
</svg>
