<svg width="1424" height="144" viewBox="0 0 1424 144" fill="none" xmlns="http://www.w3.org/2000/svg">
<path d="M42.4 143.6C27.8667 143.6 16.1333 140.733 7.19999 135C2.93329 132.467 0.799988 128.867 0.799988 124.2C0.799988 121.533 1.53329 119.4 2.99999 117.8C4.46669 116.067 6.26669 115.2 8.39999 115.2C10.6667 115.2 13.8 116.267 17.8 118.4C22.0667 120.4 25.9333 121.933 29.4 123C33 124.067 37.5333 124.6 43 124.6C48.6 124.6 52.933 123.667 56 121.8C59.2 119.933 60.8 117.333 60.8 114C60.8 111.733 60.133 109.933 58.8 108.6C57.6 107.267 55.333 106.067 52 105C48.8 103.8 43.8667 102.467 37.2 101C25.3333 98.6 16.8 95.2 11.6 90.8C6.53329 86.4 3.99999 80.333 3.99999 72.6C3.99999 66.733 5.73329 61.467 9.19999 56.8C12.6667 52 17.4 48.333 23.4 45.8C29.5333 43.133 36.4667 41.8 44.2 41.8C49.8 41.8 55.2 42.533 60.4 44C65.6 45.333 70.267 47.333 74.4 50C78.667 52.667 80.8 56.2 80.8 60.6C80.8 63.267 80.067 65.533 78.6 67.4C77.133 69.133 75.333 70 73.2 70C71.733 70 70.267 69.733 68.8 69.2C67.467 68.533 65.733 67.6 63.6 66.4C59.733 64.4 56.4 62.933 53.6 62C50.8 60.933 47.3333 60.4 43.2 60.4C38.2667 60.4 34.3333 61.4 31.4 63.4C28.6 65.4 27.2 68.133 27.2 71.6C27.2 74.933 28.6667 77.467 31.6 79.2C34.5333 80.933 40.2 82.667 48.6 84.4C57.533 86.267 64.533 88.4 69.6 90.8C74.667 93.2 78.267 96.2 80.4 99.8C82.667 103.4 83.8 108 83.8 113.6C83.8 122.667 80 129.933 72.4 135.4C64.933 140.867 54.933 143.6 42.4 143.6ZM157.47 143.6C147.737 143.6 139.137 141.533 131.67 137.4C124.337 133.267 118.67 127.4 114.67 119.8C110.67 112.2 108.67 103.333 108.67 93.2C108.67 83.067 110.737 74.133 114.87 66.4C119.137 58.533 125.07 52.467 132.67 48.2C140.27 43.933 149.004 41.8 158.87 41.8C164.07 41.8 169.27 42.533 174.47 44C179.804 45.467 184.47 47.467 188.47 50C192.737 52.8 194.87 56.333 194.87 60.6C194.87 63.533 194.137 65.933 192.67 67.8C191.337 69.533 189.537 70.4 187.27 70.4C185.804 70.4 184.27 70.067 182.67 69.4C181.07 68.733 179.47 67.933 177.87 67C174.937 65.267 172.137 63.933 169.47 63C166.804 61.933 163.737 61.4 160.27 61.4C152.004 61.4 145.604 64.133 141.07 69.6C136.67 74.933 134.47 82.667 134.47 92.8C134.47 102.8 136.67 110.533 141.07 116C145.604 121.333 152.004 124 160.27 124C163.604 124 166.537 123.533 169.07 122.6C171.737 121.533 174.67 120.133 177.87 118.4C179.87 117.2 181.604 116.333 183.07 115.8C184.537 115.133 186.004 114.8 187.47 114.8C189.604 114.8 191.404 115.733 192.87 117.6C194.337 119.467 195.07 121.8 195.07 124.6C195.07 126.867 194.537 128.867 193.47 130.6C192.537 132.2 190.937 133.667 188.67 135C184.537 137.667 179.737 139.8 174.27 141.4C168.804 142.867 163.204 143.6 157.47 143.6ZM276.327 42.2C279.793 41.933 282.527 42.667 284.527 44.4C286.527 46.133 287.527 48.733 287.527 52.2C287.527 55.8 286.66 58.467 284.927 60.2C283.193 61.933 280.06 63.067 275.527 63.6L269.527 64.2C261.66 65 255.86 67.667 252.127 72.2C248.527 76.733 246.727 82.4 246.727 89.2V131.2C246.727 135.067 245.527 138.067 243.127 140.2C240.727 142.2 237.727 143.2 234.127 143.2C230.527 143.2 227.527 142.2 225.127 140.2C222.86 138.067 221.727 135.067 221.727 131.2V53.8C221.727 50.067 222.86 47.2 225.127 45.2C227.527 43.2 230.46 42.2 233.927 42.2C237.393 42.2 240.193 43.2 242.327 45.2C244.46 47.067 245.527 49.8 245.527 53.4V61.4C248.06 55.533 251.793 51 256.727 47.8C261.793 44.6 267.393 42.8 273.527 42.4L276.327 42.2ZM383.736 115.2C386.003 115.2 387.803 116.067 389.136 117.8C390.603 119.533 391.336 121.867 391.336 124.8C391.336 128.933 388.869 132.4 383.936 135.2C379.403 137.733 374.269 139.8 368.536 141.4C362.803 142.867 357.336 143.6 352.136 143.6C336.403 143.6 323.936 139.067 314.736 130C305.536 120.933 300.936 108.533 300.936 92.8C300.936 82.8 302.936 73.933 306.936 66.2C310.936 58.467 316.536 52.467 323.736 48.2C331.069 43.933 339.336 41.8 348.536 41.8C357.336 41.8 365.003 43.733 371.536 47.6C378.069 51.467 383.136 56.933 386.736 64C390.336 71.067 392.136 79.4 392.136 89C392.136 94.733 389.603 97.6 384.536 97.6H325.536C326.336 106.8 328.936 113.6 333.336 118C337.736 122.267 344.136 124.4 352.536 124.4C356.803 124.4 360.536 123.867 363.736 122.8C367.069 121.733 370.803 120.267 374.936 118.4C378.936 116.267 381.869 115.2 383.736 115.2ZM349.136 59.4C342.336 59.4 336.869 61.533 332.736 65.8C328.736 70.067 326.336 76.2 325.536 84.2H370.736C370.469 76.067 368.469 69.933 364.736 65.8C361.003 61.533 355.803 59.4 349.136 59.4ZM499.986 115.2C502.253 115.2 504.053 116.067 505.386 117.8C506.853 119.533 507.586 121.867 507.586 124.8C507.586 128.933 505.119 132.4 500.186 135.2C495.653 137.733 490.519 139.8 484.786 141.4C479.053 142.867 473.586 143.6 468.386 143.6C452.653 143.6 440.186 139.067 430.986 130C421.786 120.933 417.186 108.533 417.186 92.8C417.186 82.8 419.186 73.933 423.186 66.2C427.186 58.467 432.786 52.467 439.986 48.2C447.319 43.933 455.586 41.8 464.786 41.8C473.586 41.8 481.253 43.733 487.786 47.6C494.319 51.467 499.386 56.933 502.986 64C506.586 71.067 508.386 79.4 508.386 89C508.386 94.733 505.853 97.6 500.786 97.6H441.786C442.586 106.8 445.186 113.6 449.586 118C453.986 122.267 460.386 124.4 468.786 124.4C473.053 124.4 476.786 123.867 479.986 122.8C483.319 121.733 487.053 120.267 491.186 118.4C495.186 116.267 498.119 115.2 499.986 115.2ZM465.386 59.4C458.586 59.4 453.119 61.533 448.986 65.8C444.986 70.067 442.586 76.2 441.786 84.2H486.986C486.719 76.067 484.719 69.933 480.986 65.8C477.253 61.533 472.053 59.4 465.386 59.4ZM595.636 41.8C607.369 41.8 616.103 45.133 621.836 51.8C627.569 58.467 630.436 68.533 630.436 82V131.2C630.436 134.933 629.303 137.867 627.036 140C624.903 142.133 621.903 143.2 618.036 143.2C614.169 143.2 611.103 142.133 608.836 140C606.569 137.867 605.436 134.933 605.436 131.2V83.4C605.436 75.8 603.969 70.267 601.036 66.8C598.236 63.333 593.769 61.6 587.636 61.6C580.436 61.6 574.636 63.867 570.236 68.4C565.969 72.933 563.836 79 563.836 86.6V131.2C563.836 134.933 562.703 137.867 560.436 140C558.169 142.133 555.103 143.2 551.236 143.2C547.369 143.2 544.303 142.133 542.036 140C539.903 137.867 538.836 134.933 538.836 131.2V53.8C538.836 50.333 539.969 47.533 542.236 45.4C544.503 43.267 547.569 42.2 551.436 42.2C554.903 42.2 557.703 43.267 559.836 45.4C562.103 47.4 563.236 50.067 563.236 53.4V58.8C566.569 53.333 571.036 49.133 576.636 46.2C582.236 43.267 588.569 41.8 595.636 41.8ZM701.228 143.6C686.695 143.6 674.961 140.733 666.028 135C661.761 132.467 659.628 128.867 659.628 124.2C659.628 121.533 660.361 119.4 661.828 117.8C663.295 116.067 665.095 115.2 667.228 115.2C669.495 115.2 672.628 116.267 676.628 118.4C680.895 120.4 684.761 121.933 688.228 123C691.828 124.067 696.361 124.6 701.828 124.6C707.428 124.6 711.761 123.667 714.828 121.8C718.028 119.933 719.628 117.333 719.628 114C719.628 111.733 718.961 109.933 717.628 108.6C716.428 107.267 714.161 106.067 710.828 105C707.628 103.8 702.695 102.467 696.028 101C684.161 98.6 675.628 95.2 670.428 90.8C665.361 86.4 662.828 80.333 662.828 72.6C662.828 66.733 664.561 61.467 668.028 56.8C671.495 52 676.228 48.333 682.228 45.8C688.361 43.133 695.295 41.8 703.028 41.8C708.628 41.8 714.028 42.533 719.228 44C724.428 45.333 729.095 47.333 733.228 50C737.495 52.667 739.628 56.2 739.628 60.6C739.628 63.267 738.895 65.533 737.428 67.4C735.961 69.133 734.161 70 732.028 70C730.561 70 729.095 69.733 727.628 69.2C726.295 68.533 724.561 67.6 722.428 66.4C718.561 64.4 715.228 62.933 712.428 62C709.628 60.933 706.161 60.4 702.028 60.4C697.095 60.4 693.161 61.4 690.228 63.4C687.428 65.4 686.028 68.133 686.028 71.6C686.028 74.933 687.495 77.467 690.428 79.2C693.361 80.933 699.028 82.667 707.428 84.4C716.361 86.267 723.361 88.4 728.428 90.8C733.495 93.2 737.095 96.2 739.228 99.8C741.495 103.4 742.628 108 742.628 113.6C742.628 122.667 738.828 129.933 731.228 135.4C723.761 140.867 713.761 143.6 701.228 143.6ZM830.098 41.8C853.032 41.8 864.498 55.2 864.498 82V131.2C864.498 134.933 863.365 137.867 861.098 140C858.965 142.133 855.965 143.2 852.098 143.2C848.232 143.2 845.165 142.133 842.898 140C840.632 137.867 839.498 134.933 839.498 131.2V82C839.498 74.933 838.032 69.8 835.098 66.6C832.298 63.267 827.832 61.6 821.698 61.6C814.498 61.6 808.698 63.867 804.298 68.4C800.032 72.933 797.898 79 797.898 86.6V131.2C797.898 134.933 796.765 137.867 794.498 140C792.232 142.133 789.165 143.2 785.298 143.2C781.432 143.2 778.365 142.133 776.098 140C773.965 137.867 772.898 134.933 772.898 131.2V11.6C772.898 8.1333 774.032 5.3333 776.298 3.2C778.698 1.0667 781.765 0 785.498 0C789.232 0 792.232 1 794.498 3C796.765 5 797.898 7.7333 797.898 11.2V57.8C801.232 52.6 805.632 48.667 811.098 46C816.698 43.2 823.032 41.8 830.098 41.8ZM944.491 143.6C934.491 143.6 925.691 141.533 918.091 137.4C910.624 133.267 904.824 127.333 900.691 119.6C896.557 111.867 894.491 102.867 894.491 92.6C894.491 82.333 896.557 73.4 900.691 65.8C904.824 58.067 910.624 52.133 918.091 48C925.691 43.867 934.491 41.8 944.491 41.8C954.49 41.8 963.22 43.867 970.69 48C978.29 52.133 984.09 58.067 988.09 65.8C992.22 73.4 994.29 82.333 994.29 92.6C994.29 102.867 992.22 111.867 988.09 119.6C984.09 127.333 978.29 133.267 970.69 137.4C963.22 141.533 954.49 143.6 944.491 143.6ZM944.291 124.2C952.42 124.2 958.62 121.533 962.89 116.2C967.16 110.867 969.29 103 969.29 92.6C969.29 82.333 967.16 74.533 962.89 69.2C958.62 63.733 952.49 61 944.491 61C936.491 61 930.291 63.733 925.891 69.2C921.624 74.533 919.491 82.333 919.491 92.6C919.491 103 921.624 110.867 925.891 116.2C930.157 121.533 936.291 124.2 944.291 124.2ZM1075.14 124.6C1081.81 125 1085.14 128 1085.14 133.6C1085.14 136.8 1083.81 139.267 1081.14 141C1078.61 142.6 1074.94 143.267 1070.14 143L1064.74 142.6C1042.34 141 1031.14 129 1031.14 106.6V63H1021.14C1017.54 63 1014.74 62.2 1012.74 60.6C1010.88 59 1009.94 56.667 1009.94 53.6C1009.94 50.533 1010.88 48.2 1012.74 46.6C1014.74 45 1017.54 44.2 1021.14 44.2H1031.14V25.8C1031.14 22.2 1032.28 19.3333 1034.54 17.2C1036.81 15.0667 1039.88 14 1043.74 14C1047.48 14 1050.48 15.0667 1052.74 17.2C1055.01 19.3333 1056.14 22.2 1056.14 25.8V44.2H1073.14C1076.74 44.2 1079.48 45 1081.34 46.6C1083.34 48.2 1084.34 50.533 1084.34 53.6C1084.34 56.667 1083.34 59 1081.34 60.6C1079.48 62.2 1076.74 63 1073.14 63H1056.14V108.4C1056.14 118.267 1060.68 123.533 1069.74 124.2L1075.14 124.6Z" fill="white"/>
<path d="M1164.37 41.8C1172.91 41.8 1180.44 43.867 1186.97 48C1193.51 52.133 1198.57 58 1202.17 65.6C1205.91 73.2 1207.77 82.067 1207.77 92.2C1207.77 102.333 1205.91 111.333 1202.17 119.2C1198.57 126.933 1193.44 132.933 1186.77 137.2C1180.24 141.467 1172.77 143.6 1164.37 143.6C1157.31 143.6 1150.97 142.067 1145.37 139C1139.91 135.933 1135.71 131.667 1132.77 126.2V131.2C1132.77 134.8 1131.64 137.667 1129.37 139.8C1127.11 141.933 1124.11 143 1120.37 143C1116.64 143 1113.64 141.933 1111.37 139.8C1109.24 137.667 1108.17 134.8 1108.17 131.2V11.6C1108.17 8.1333 1109.31 5.3333 1111.57 3.2C1113.97 1.0667 1117.04 0 1120.77 0C1124.51 0 1127.51 1 1129.77 3C1132.04 5 1133.17 7.7333 1133.17 11.2V58.4C1136.11 53.067 1140.31 49 1145.77 46.2C1151.24 43.267 1157.44 41.8 1164.37 41.8ZM1157.77 124.2C1165.64 124.2 1171.77 121.4 1176.17 115.8C1180.57 110.2 1182.77 102.333 1182.77 92.2C1182.77 82.2 1180.57 74.533 1176.17 69.2C1171.91 63.867 1165.77 61.2 1157.77 61.2C1149.77 61.2 1143.57 63.933 1139.17 69.4C1134.91 74.733 1132.77 82.467 1132.77 92.6C1132.77 102.733 1134.91 110.533 1139.17 116C1143.57 121.467 1149.77 124.2 1157.77 124.2ZM1282.89 143.6C1272.89 143.6 1264.09 141.533 1256.49 137.4C1249.02 133.267 1243.22 127.333 1239.09 119.6C1234.96 111.867 1232.89 102.867 1232.89 92.6C1232.89 82.333 1234.96 73.4 1239.09 65.8C1243.22 58.067 1249.02 52.133 1256.49 48C1264.09 43.867 1272.89 41.8 1282.89 41.8C1292.89 41.8 1301.62 43.867 1309.09 48C1316.69 52.133 1322.49 58.067 1326.49 65.8C1330.62 73.4 1332.69 82.333 1332.69 92.6C1332.69 102.867 1330.62 111.867 1326.49 119.6C1322.49 127.333 1316.69 133.267 1309.09 137.4C1301.62 141.533 1292.89 143.6 1282.89 143.6ZM1282.69 124.2C1290.82 124.2 1297.02 121.533 1301.29 116.2C1305.56 110.867 1307.69 103 1307.69 92.6C1307.69 82.333 1305.56 74.533 1301.29 69.2C1297.02 63.733 1290.89 61 1282.89 61C1274.89 61 1268.69 63.733 1264.29 69.2C1260.02 74.533 1257.89 82.333 1257.89 92.6C1257.89 103 1260.02 110.867 1264.29 116.2C1268.56 121.533 1274.69 124.2 1282.69 124.2ZM1413.54 124.6C1420.21 125 1423.54 128 1423.54 133.6C1423.54 136.8 1422.21 139.267 1419.54 141C1417.01 142.6 1413.34 143.267 1408.54 143L1403.14 142.6C1380.74 141 1369.54 129 1369.54 106.6V63H1359.54C1355.94 63 1353.14 62.2 1351.14 60.6C1349.28 59 1348.34 56.667 1348.34 53.6C1348.34 50.533 1349.28 48.2 1351.14 46.6C1353.14 45 1355.94 44.2 1359.54 44.2H1369.54V25.8C1369.54 22.2 1370.68 19.3333 1372.94 17.2C1375.21 15.0667 1378.28 14 1382.14 14C1385.88 14 1388.88 15.0667 1391.14 17.2C1393.41 19.3333 1394.54 22.2 1394.54 25.8V44.2H1411.54C1415.14 44.2 1417.88 45 1419.74 46.6C1421.74 48.2 1422.74 50.533 1422.74 53.6C1422.74 56.667 1421.74 59 1419.74 60.6C1417.88 62.2 1415.14 63 1411.54 63H1394.54V108.4C1394.54 118.267 1399.08 123.533 1408.14 124.2L1413.54 124.6Z" fill="#52AD77"/>
</svg>
