<svg width="270" height="39" viewBox="0 0 270 39" fill="none" xmlns="http://www.w3.org/2000/svg">
<path d="M235.953 22.129L242.437 27.534C242.696 27.8047 243.019 28.0006 243.373 28.1023C243.648 28.1946 243.942 28.2086 244.222 28.1429C244.542 28.1012 244.848 27.9837 245.117 27.7997C245.386 27.6155 245.61 27.3696 245.773 27.0808C247.795 23.6829 249.814 20.2855 251.833 16.8888L253.555 13.9943C253.838 13.4771 253.914 12.865 253.769 12.2895C253.657 11.8698 253.431 11.4937 253.115 11.2079C252.799 10.9222 252.412 10.7396 251.997 10.6829C251.583 10.6262 251.162 10.698 250.787 10.8893C250.411 11.0806 250.098 11.3829 249.886 11.7583L243.827 21.9556L242.107 24.859L245.443 24.4111L238.956 18.9991C238.544 18.6057 238.013 18.3763 237.456 18.3512C236.893 18.355 236.354 18.5875 235.953 18.9991C235.557 19.4148 235.333 19.9773 235.332 20.5641C235.354 21.1129 235.523 21.7696 235.953 22.129Z" fill="url(#paint0_linear_1601_242)"/>
<path d="M13.8673 31.0172C11.7324 31.0172 10.0088 30.5804 8.6965 29.707C8.06973 29.3211 7.75635 28.7727 7.75635 28.0617C7.75635 27.6554 7.86407 27.3305 8.07953 27.0867C8.29498 26.8227 8.5594 26.6906 8.87278 26.6906C9.20575 26.6906 9.66603 26.8532 10.2536 27.1781C10.8804 27.4828 11.4484 27.7164 11.9577 27.8789C12.4865 28.0415 13.1524 28.1227 13.9555 28.1227C14.7781 28.1227 15.4146 27.9805 15.8652 27.6961C16.3352 27.4117 16.5703 27.0156 16.5703 26.5078C16.5703 26.1624 16.4723 25.8882 16.2765 25.6852C16.1002 25.4821 15.7672 25.2993 15.2776 25.1367C14.8075 24.9539 14.0828 24.7508 13.1035 24.5273C11.3603 24.1617 10.1067 23.6438 9.34285 22.9734C8.59856 22.3031 8.22642 21.3789 8.22642 20.2008C8.22642 19.307 8.48104 18.5047 8.9903 17.7938C9.49955 17.0625 10.1949 16.5039 11.0763 16.118C11.9772 15.7117 12.9957 15.5086 14.1318 15.5086C14.9544 15.5086 15.7476 15.6203 16.5115 15.8438C17.2754 16.0468 17.961 16.3515 18.5681 16.7578C19.1949 17.1641 19.5082 17.7023 19.5082 18.3727C19.5082 18.779 19.4006 19.1242 19.1851 19.4086C18.9696 19.6726 18.7052 19.8047 18.3918 19.8047C18.1763 19.8047 17.961 19.764 17.7455 19.6828C17.5496 19.5812 17.2949 19.4391 16.9816 19.2563C16.4135 18.9516 15.9239 18.7281 15.5126 18.5859C15.1013 18.4234 14.592 18.3422 13.9849 18.3422C13.2602 18.3422 12.6823 18.4945 12.2515 18.7992C11.8401 19.1039 11.6345 19.5203 11.6345 20.0484C11.6345 20.5562 11.8499 20.9422 12.2808 21.2062C12.7117 21.4703 13.5442 21.7344 14.7781 21.9984C16.0904 22.2829 17.1186 22.6078 17.863 22.9734C18.6073 23.3391 19.1362 23.7961 19.4495 24.3445C19.7825 24.893 19.9489 25.5938 19.9489 26.4469C19.9489 27.8282 19.3907 28.9351 18.2743 29.768C17.1774 30.6008 15.7084 31.0172 13.8673 31.0172ZM30.771 31.0172C29.3412 31.0172 28.0779 30.7023 26.981 30.0727C25.9038 29.443 25.0713 28.5492 24.4837 27.3914C23.8961 26.2336 23.6023 24.8828 23.6023 23.3391C23.6023 21.7954 23.906 20.4343 24.5131 19.2563C25.1399 18.0578 26.0115 17.1336 27.1279 16.4836C28.2443 15.8335 29.5273 15.5086 30.9766 15.5086C31.7405 15.5086 32.5044 15.6203 33.2683 15.8438C34.0518 16.0672 34.7372 16.3719 35.3248 16.7578C35.9517 17.1844 36.265 17.7226 36.265 18.3727C36.265 18.8195 36.1573 19.1851 35.9418 19.4695C35.746 19.7335 35.4816 19.8656 35.1486 19.8656C34.9332 19.8656 34.7079 19.8149 34.4728 19.7133C34.2378 19.6117 34.0027 19.4898 33.7677 19.3477C33.3369 19.0836 32.9255 18.8804 32.5338 18.7383C32.1421 18.5757 31.6916 18.4945 31.1823 18.4945C29.968 18.4945 29.0279 18.9109 28.3618 19.7438C27.7155 20.5562 27.3923 21.7344 27.3923 23.2781C27.3923 24.8016 27.7155 25.9796 28.3618 26.8125C29.0279 27.6249 29.968 28.0312 31.1823 28.0312C31.6721 28.0312 32.1029 27.9601 32.475 27.818C32.8668 27.6554 33.2976 27.4421 33.7677 27.1781C34.0615 26.9953 34.3162 26.8632 34.5316 26.782C34.7471 26.6804 34.9626 26.6297 35.1779 26.6297C35.4914 26.6297 35.7558 26.7718 35.9712 27.0563C36.1867 27.3407 36.2944 27.6961 36.2944 28.1227C36.2944 28.468 36.2161 28.7727 36.0593 29.0367C35.9223 29.2805 35.6872 29.504 35.3542 29.707C34.7471 30.1133 34.042 30.4383 33.2389 30.682C32.4359 30.9055 31.6133 31.0172 30.771 31.0172ZM48.2309 15.5695C48.7401 15.5289 49.1417 15.6407 49.4355 15.9047C49.7293 16.1687 49.8762 16.5648 49.8762 17.093C49.8762 17.6414 49.7488 18.0477 49.4943 18.3117C49.2395 18.5757 48.7793 18.7485 48.1134 18.8297L47.232 18.9211C46.0764 19.043 45.2243 19.4493 44.676 20.1398C44.1471 20.8304 43.8827 21.6937 43.8827 22.7297V29.1281C43.8827 29.7172 43.7064 30.1743 43.3539 30.4992C43.0013 30.8039 42.5606 30.9562 42.0318 30.9562C41.503 30.9562 41.0623 30.8039 40.7097 30.4992C40.3767 30.1743 40.2102 29.7172 40.2102 29.1281V17.3367C40.2102 16.768 40.3767 16.3312 40.7097 16.0266C41.0623 15.7219 41.4931 15.5695 42.0024 15.5695C42.5116 15.5695 42.9229 15.7219 43.2364 16.0266C43.5497 16.311 43.7064 16.7273 43.7064 17.2758V18.4945C44.0785 17.6007 44.6269 16.9102 45.3517 16.4227C46.0959 15.9352 46.9185 15.6609 47.8196 15.6L48.2309 15.5695ZM64.0092 26.6906C64.3422 26.6906 64.6066 26.8227 64.8024 27.0867C65.0179 27.3507 65.1256 27.7063 65.1256 28.1531C65.1256 28.7828 64.7632 29.3109 64.0386 29.7375C63.3727 30.1234 62.6185 30.4383 61.7763 30.682C60.9341 30.9055 60.131 31.0172 59.3672 31.0172C57.056 31.0172 55.2246 30.3266 53.8732 28.9453C52.5217 27.564 51.846 25.6749 51.846 23.2781C51.846 21.7547 52.1398 20.4039 52.7273 19.2258C53.3149 18.0477 54.1376 17.1336 55.1952 16.4836C56.2725 15.8335 57.4869 15.5086 58.8383 15.5086C60.131 15.5086 61.2573 15.8031 62.217 16.3922C63.1767 16.9813 63.921 17.814 64.4499 18.8906C64.9787 19.9672 65.2431 21.2367 65.2431 22.6992C65.2431 23.5726 64.871 24.0094 64.1267 24.0094H55.4597C55.5772 25.4109 55.9591 26.4469 56.6055 27.1172C57.2518 27.7672 58.192 28.0922 59.4259 28.0922C60.0527 28.0922 60.6011 28.011 61.0712 27.8484C61.5608 27.6859 62.1093 27.4625 62.7165 27.1781C63.3041 26.8532 63.7349 26.6906 64.0092 26.6906ZM58.9265 18.1898C57.9276 18.1898 57.1245 18.5148 56.5173 19.1648C55.9297 19.8149 55.5772 20.7492 55.4597 21.968H62.0995C62.0603 20.729 61.7665 19.7945 61.2181 19.1648C60.6697 18.5148 59.9058 18.1898 58.9265 18.1898ZM81.0862 26.6906C81.4192 26.6906 81.6836 26.8227 81.8794 27.0867C82.0949 27.3507 82.2026 27.7063 82.2026 28.1531C82.2026 28.7828 81.8402 29.3109 81.1155 29.7375C80.4496 30.1234 79.6955 30.4383 78.8533 30.682C78.0111 30.9055 77.208 31.0172 76.4442 31.0172C74.133 31.0172 72.3016 30.3266 70.9501 28.9453C69.5987 27.564 68.9229 25.6749 68.9229 23.2781C68.9229 21.7547 69.2167 20.4039 69.8043 19.2258C70.3919 18.0477 71.2146 17.1336 72.2722 16.4836C73.3494 15.8335 74.5639 15.5086 75.9153 15.5086C77.208 15.5086 78.3343 15.8031 79.294 16.3922C80.2537 16.9813 80.998 17.814 81.5269 18.8906C82.0557 19.9672 82.3201 21.2367 82.3201 22.6992C82.3201 23.5726 81.948 24.0094 81.2037 24.0094H72.5367C72.6542 25.4109 73.0361 26.4469 73.6825 27.1172C74.3288 27.7672 75.269 28.0922 76.5029 28.0922C77.1297 28.0922 77.6781 28.011 78.1482 27.8484C78.6378 27.6859 79.1863 27.4625 79.7934 27.1781C80.381 26.8532 80.8119 26.6906 81.0862 26.6906ZM76.0035 18.1898C75.0045 18.1898 74.2014 18.5148 73.5943 19.1648C73.0067 19.8149 72.6542 20.7492 72.5367 21.968H79.1765C79.1373 20.729 78.8435 19.7945 78.2951 19.1648C77.7467 18.5148 76.9828 18.1898 76.0035 18.1898ZM95.137 15.5086C96.8606 15.5086 98.1436 16.0164 98.9858 17.032C99.8279 18.0477 100.249 19.5812 100.249 21.6328V29.1281C100.249 29.6968 100.083 30.1438 99.7496 30.4688C99.4363 30.7937 98.9956 30.9562 98.4276 30.9562C97.8595 30.9562 97.4091 30.7937 97.0761 30.4688C96.7431 30.1438 96.5766 29.6968 96.5766 29.1281V21.8461C96.5766 20.6883 96.3611 19.8454 95.9303 19.3172C95.519 18.789 94.8628 18.525 93.9618 18.525C92.9042 18.525 92.0521 18.8704 91.4058 19.5609C90.779 20.2515 90.4656 21.1758 90.4656 22.3336V29.1281C90.4656 29.6968 90.2992 30.1438 89.9662 30.4688C89.6332 30.7937 89.1828 30.9562 88.6147 30.9562C88.0467 30.9562 87.5963 30.7937 87.2633 30.4688C86.9499 30.1438 86.7932 29.6968 86.7932 29.1281V17.3367C86.7932 16.8085 86.9596 16.382 87.2926 16.057C87.6256 15.7321 88.076 15.5695 88.6441 15.5695C89.1534 15.5695 89.5647 15.7321 89.878 16.057C90.2111 16.3617 90.3775 16.768 90.3775 17.2758V18.0984C90.8671 17.2656 91.5233 16.6257 92.3459 16.1789C93.1686 15.7321 94.0989 15.5086 95.137 15.5086ZM110.648 31.0172C108.513 31.0172 106.79 30.5804 105.478 29.707C104.851 29.3211 104.537 28.7727 104.537 28.0617C104.537 27.6554 104.645 27.3305 104.861 27.0867C105.076 26.8227 105.34 26.6906 105.654 26.6906C105.987 26.6906 106.447 26.8532 107.035 27.1781C107.661 27.4828 108.229 27.7164 108.739 27.8789C109.268 28.0415 109.933 28.1227 110.736 28.1227C111.559 28.1227 112.196 27.9805 112.646 27.6961C113.116 27.4117 113.351 27.0156 113.351 26.5078C113.351 26.1624 113.253 25.8882 113.057 25.6852C112.881 25.4821 112.548 25.2993 112.059 25.1367C111.589 24.9539 110.864 24.7508 109.884 24.5273C108.141 24.1617 106.888 23.6438 106.124 22.9734C105.38 22.3031 105.007 21.3789 105.007 20.2008C105.007 19.307 105.262 18.5047 105.771 17.7938C106.281 17.0625 106.976 16.5039 107.857 16.118C108.758 15.7117 109.777 15.5086 110.913 15.5086C111.735 15.5086 112.529 15.6203 113.293 15.8438C114.056 16.0468 114.742 16.3515 115.349 16.7578C115.976 17.1641 116.289 17.7023 116.289 18.3727C116.289 18.779 116.182 19.1242 115.966 19.4086C115.751 19.6726 115.486 19.8047 115.173 19.8047C114.957 19.8047 114.742 19.764 114.526 19.6828C114.331 19.5812 114.076 19.4391 113.763 19.2563C113.195 18.9516 112.705 18.7281 112.294 18.5859C111.882 18.4234 111.373 18.3422 110.766 18.3422C110.041 18.3422 109.463 18.4945 109.032 18.7992C108.621 19.1039 108.415 19.5203 108.415 20.0484C108.415 20.5562 108.631 20.9422 109.062 21.2062C109.493 21.4703 110.325 21.7344 111.559 21.9984C112.871 22.2829 113.9 22.6078 114.644 22.9734C115.388 23.3391 115.917 23.7961 116.231 24.3445C116.564 24.893 116.73 25.5938 116.73 26.4469C116.73 27.8282 116.172 28.9351 115.055 29.768C113.958 30.6008 112.489 31.0172 110.648 31.0172ZM129.579 15.5086C132.948 15.5086 134.633 17.55 134.633 21.6328V29.1281C134.633 29.6968 134.466 30.1438 134.133 30.4688C133.82 30.7937 133.379 30.9562 132.811 30.9562C132.243 30.9562 131.793 30.7937 131.46 30.4688C131.127 30.1438 130.96 29.6968 130.96 29.1281V21.6328C130.96 20.5562 130.745 19.7742 130.314 19.2867C129.902 18.779 129.246 18.525 128.345 18.525C127.288 18.525 126.436 18.8704 125.789 19.5609C125.163 20.2515 124.849 21.1758 124.849 22.3336V29.1281C124.849 29.6968 124.683 30.1438 124.35 30.4688C124.017 30.7937 123.566 30.9562 122.998 30.9562C122.43 30.9562 121.98 30.7937 121.647 30.4688C121.333 30.1438 121.177 29.6968 121.177 29.1281V10.9078C121.177 10.3797 121.343 9.95312 121.676 9.62813C122.029 9.30313 122.479 9.14062 123.028 9.14062C123.576 9.14062 124.017 9.29297 124.35 9.59766C124.683 9.90234 124.849 10.3187 124.849 10.8469V17.9461C125.339 17.1539 125.985 16.5547 126.788 16.1484C127.611 15.7219 128.541 15.5086 129.579 15.5086ZM146.383 31.0172C144.914 31.0172 143.622 30.7023 142.505 30.0727C141.408 29.443 140.556 28.539 139.949 27.3609C139.342 26.1829 139.038 24.8118 139.038 23.2477C139.038 21.6835 139.342 20.3227 139.949 19.1648C140.556 17.9868 141.408 17.0828 142.505 16.4531C143.622 15.8235 144.914 15.5086 146.383 15.5086C147.852 15.5086 149.135 15.8235 150.232 16.4531C151.348 17.0828 152.2 17.9868 152.788 19.1648C153.395 20.3227 153.699 21.6835 153.699 23.2477C153.699 24.8118 153.395 26.1829 152.788 27.3609C152.2 28.539 151.348 29.443 150.232 30.0727C149.135 30.7023 147.852 31.0172 146.383 31.0172ZM146.354 28.0617C147.548 28.0617 148.459 27.6554 149.086 26.843C149.713 26.0305 150.026 24.832 150.026 23.2477C150.026 21.6835 149.713 20.4953 149.086 19.6828C148.459 18.8499 147.558 18.4336 146.383 18.4336C145.208 18.4336 144.297 18.8499 143.651 19.6828C143.024 20.4953 142.711 21.6835 142.711 23.2477C142.711 24.832 143.024 26.0305 143.651 26.843C144.278 27.6554 145.179 28.0617 146.354 28.0617ZM165.576 28.1227C166.555 28.1836 167.045 28.6406 167.045 29.4938C167.045 29.9813 166.849 30.3571 166.457 30.6211C166.085 30.8648 165.546 30.9665 164.841 30.9258L164.048 30.8648C160.757 30.6211 159.112 28.793 159.112 25.3805V18.7383H157.643C157.114 18.7383 156.703 18.6164 156.409 18.3727C156.136 18.1289 155.998 17.7735 155.998 17.3062C155.998 16.839 156.136 16.4836 156.409 16.2398C156.703 15.9961 157.114 15.8742 157.643 15.8742H159.112V13.0711C159.112 12.5227 159.279 12.0859 159.611 11.7609C159.945 11.4359 160.396 11.2734 160.963 11.2734C161.512 11.2734 161.953 11.4359 162.285 11.7609C162.618 12.0859 162.784 12.5227 162.784 13.0711V15.8742H165.282C165.811 15.8742 166.213 15.9961 166.486 16.2398C166.78 16.4836 166.927 16.839 166.927 17.3062C166.927 17.7735 166.78 18.1289 166.486 18.3727C166.213 18.6164 165.811 18.7383 165.282 18.7383H162.784V25.6547C162.784 27.1579 163.451 27.9601 164.782 28.0617L165.576 28.1227Z" fill="white"/>
<path d="M178.683 15.5086C179.938 15.5086 181.044 15.8235 182.003 16.4531C182.964 17.0828 183.707 17.9766 184.236 19.1344C184.785 20.2922 185.059 21.643 185.059 23.1867C185.059 24.7304 184.785 26.1015 184.236 27.3C183.707 28.4781 182.954 29.3921 181.974 30.0422C181.014 30.6922 179.917 31.0172 178.683 31.0172C177.646 31.0172 176.715 30.7836 175.892 30.3164C175.09 29.8492 174.473 29.1993 174.041 28.3664V29.1281C174.041 29.6766 173.875 30.1133 173.542 30.4383C173.21 30.7632 172.769 30.9258 172.22 30.9258C171.672 30.9258 171.231 30.7632 170.898 30.4383C170.585 30.1133 170.427 29.6766 170.427 29.1281V10.9078C170.427 10.3797 170.595 9.95312 170.927 9.62813C171.279 9.30313 171.73 9.14062 172.278 9.14062C172.828 9.14062 173.269 9.29297 173.601 9.59766C173.934 9.90234 174.1 10.3187 174.1 10.8469V18.0375C174.532 17.2251 175.149 16.6055 175.951 16.1789C176.754 15.7321 177.665 15.5086 178.683 15.5086ZM177.714 28.0617C178.87 28.0617 179.77 27.6352 180.417 26.782C181.063 25.9289 181.386 24.7304 181.386 23.1867C181.386 21.6633 181.063 20.4953 180.417 19.6828C179.791 18.8704 178.889 18.4641 177.714 18.4641C176.538 18.4641 175.628 18.8804 174.981 19.7133C174.356 20.5257 174.041 21.704 174.041 23.2477C174.041 24.7914 174.356 25.9796 174.981 26.8125C175.628 27.6454 176.538 28.0617 177.714 28.0617ZM196.094 31.0172C194.625 31.0172 193.332 30.7023 192.216 30.0727C191.118 29.443 190.266 28.539 189.659 27.3609C189.053 26.1829 188.749 24.8118 188.749 23.2477C188.749 21.6835 189.053 20.3227 189.659 19.1648C190.266 17.9868 191.118 17.0828 192.216 16.4531C193.332 15.8235 194.625 15.5086 196.094 15.5086C197.563 15.5086 198.845 15.8235 199.942 16.4531C201.059 17.0828 201.911 17.9868 202.498 19.1648C203.105 20.3227 203.409 21.6835 203.409 23.2477C203.409 24.8118 203.105 26.1829 202.498 27.3609C201.911 28.539 201.059 29.443 199.942 30.0727C198.845 30.7023 197.563 31.0172 196.094 31.0172ZM196.064 28.0617C197.259 28.0617 198.169 27.6554 198.797 26.843C199.424 26.0305 199.737 24.832 199.737 23.2477C199.737 21.6835 199.424 20.4953 198.797 19.6828C198.169 18.8499 197.269 18.4336 196.094 18.4336C194.918 18.4336 194.008 18.8499 193.361 19.6828C192.734 20.4953 192.421 21.6835 192.421 23.2477C192.421 24.832 192.734 26.0305 193.361 26.843C193.989 27.6554 194.889 28.0617 196.064 28.0617ZM215.286 28.1227C216.266 28.1836 216.755 28.6406 216.755 29.4938C216.755 29.9813 216.56 30.3571 216.167 30.6211C215.796 30.8648 215.257 30.9665 214.551 30.9258L213.758 30.8648C210.468 30.6211 208.822 28.793 208.822 25.3805V18.7383H207.353C206.825 18.7383 206.413 18.6164 206.119 18.3727C205.846 18.1289 205.708 17.7735 205.708 17.3062C205.708 16.839 205.846 16.4836 206.119 16.2398C206.413 15.9961 206.825 15.8742 207.353 15.8742H208.822V13.0711C208.822 12.5227 208.99 12.0859 209.322 11.7609C209.655 11.4359 210.106 11.2734 210.673 11.2734C211.223 11.2734 211.663 11.4359 211.995 11.7609C212.329 12.0859 212.495 12.5227 212.495 13.0711V15.8742H214.992C215.521 15.8742 215.924 15.9961 216.197 16.2398C216.491 16.4836 216.637 16.839 216.637 17.3062C216.637 17.7735 216.491 18.1289 216.197 18.3727C215.924 18.6164 215.521 18.7383 214.992 18.7383H212.495V25.6547C212.495 27.1579 213.162 27.9601 214.493 28.0617L215.286 28.1227Z" fill="#52AD77"/>
<path d="M227.59 25.5302C227.567 26.9491 227.554 28.3676 227.551 29.7853C227.551 30.4359 227.551 31.086 227.551 31.7356C227.551 32.2968 227.533 32.8632 227.567 33.4245C227.614 34.2223 227.773 35.0658 228.225 35.7348C228.497 36.1435 228.838 36.4991 229.23 36.7849C229.502 36.9722 229.795 37.1217 230.105 37.2297C230.666 37.4538 231.301 37.5067 231.889 37.5527C232.445 37.5967 233.004 37.6074 233.562 37.6179C235.003 37.6462 236.445 37.6179 237.884 37.5527C238.335 37.5437 238.766 37.359 239.093 37.0355C239.331 36.7885 239.494 36.4739 239.56 36.1315C239.626 35.789 239.591 35.434 239.461 35.1115C239.332 34.789 239.113 34.5134 238.833 34.3196C238.55 34.1259 238.221 34.0226 237.884 34.0229C236.713 34.0794 235.542 34.1047 234.37 34.0987C233.38 34.1188 232.39 34.077 231.405 33.9734L231.859 34.0352C231.555 33.9985 231.257 33.922 230.972 33.8075L231.38 33.984C231.229 33.9185 231.087 33.835 230.954 33.7351L231.297 34.0105C231.166 33.9077 231.048 33.7892 230.946 33.6576L231.213 34.0105C231.107 33.864 231.019 33.7052 230.95 33.5375L231.12 33.9593C231.038 33.7407 230.981 33.5134 230.95 33.2816L231.01 33.7511C230.96 33.1896 230.946 32.6254 230.966 32.0621C230.966 31.3808 230.966 30.7001 230.966 30.02C230.966 28.5234 230.979 27.0274 231.006 25.532C231.02 24.6089 230.21 23.7247 229.297 23.7671C228.848 23.7761 228.419 23.965 228.1 24.2939C227.781 24.623 227.599 25.0667 227.59 25.532V25.5302Z" fill="white"/>
<path d="M259.151 25.5322C259.175 27.0275 259.188 28.5235 259.188 30.0199C259.188 30.6889 259.188 31.3577 259.188 32.0265C259.209 32.6017 259.193 33.1776 259.141 33.7507L259.203 33.2813C259.171 33.513 259.113 33.7403 259.031 33.9589L259.203 33.5371C259.132 33.705 259.043 33.8637 258.935 34.0101L259.204 33.6571C259.101 33.7892 258.982 33.9078 258.85 34.0101L259.195 33.7348C259.063 33.8348 258.918 33.9183 258.767 33.9836L259.179 33.8072C258.89 33.9216 258.589 33.9981 258.28 34.0348L258.74 33.9731C257.746 34.0766 256.745 34.1184 255.745 34.0983C254.558 34.1055 253.372 34.0802 252.19 34.0225C251.286 33.9783 250.423 34.8643 250.464 35.7872C250.473 36.2523 250.658 36.6958 250.979 37.0247C251.301 37.3536 251.736 37.5425 252.19 37.552C253.496 37.6138 254.803 37.6403 256.111 37.6243C256.676 37.6243 257.245 37.605 257.812 37.5785C258.467 37.5664 259.118 37.4831 259.755 37.3297C260.463 37.1419 261.102 36.7476 261.596 36.1947C262.088 35.6419 262.413 34.9547 262.529 34.2166C262.717 32.9372 262.639 31.6153 262.637 30.3236C262.637 28.727 262.624 27.1292 262.596 25.5304C262.589 25.0639 262.408 24.618 262.091 24.2827C261.765 23.955 261.327 23.7696 260.869 23.7656C259.946 23.808 259.125 24.5421 259.143 25.5304L259.151 25.5322Z" fill="white"/>
<path d="M231.015 14.0665C230.992 12.5545 230.979 11.0425 230.975 9.53054C230.975 8.85366 230.975 8.17738 230.975 7.50169C230.954 6.92016 230.969 6.33783 231.02 5.75831L230.959 6.23297C230.99 5.99854 231.047 5.76867 231.129 5.54776L230.959 5.97423C231.028 5.80406 231.116 5.64296 231.222 5.49422L230.954 5.8511C231.057 5.71489 231.175 5.59207 231.304 5.48529L230.963 5.76546C231.095 5.66453 231.238 5.57953 231.388 5.51206L230.981 5.6905C231.266 5.57647 231.564 5.49917 231.868 5.46033L231.414 5.52455C232.398 5.41983 233.387 5.37753 234.376 5.39786C235.546 5.39073 236.716 5.4163 237.885 5.4746C238.778 5.51742 239.632 4.62166 239.59 3.6902C239.582 3.21994 239.398 2.77161 239.081 2.43903C238.763 2.10645 238.334 1.91536 237.885 1.9058C236.595 1.84155 235.304 1.81716 234.011 1.83262C233.453 1.83262 232.89 1.85048 232.332 1.87725C231.684 1.88998 231.041 1.97493 230.412 2.13062C229.713 2.31965 229.08 2.71785 228.594 3.27655C228.107 3.83526 227.786 4.53024 227.671 5.27652C227.485 6.57201 227.561 7.90852 227.564 9.21292C227.564 10.8296 227.577 12.4451 227.605 14.0594C227.612 14.5314 227.792 14.9828 228.104 15.3227C228.426 15.6544 228.858 15.8415 229.31 15.8438C230.223 15.8009 231.034 15.0604 231.016 14.0594L231.015 14.0665Z" fill="white"/>
<path d="M262.022 14.2192C262.045 12.7846 262.06 11.3506 262.063 9.91715C262.063 9.26052 262.063 8.6021 262.063 7.94546C262.063 7.37804 262.079 6.80527 262.048 6.23963C262 5.43133 261.844 4.57842 261.396 3.90394C261.129 3.48727 260.794 3.12468 260.405 2.83333C260.136 2.64469 259.845 2.49355 259.539 2.38368C258.971 2.18599 258.377 2.07603 257.778 2.05714C257.229 2.01432 256.675 2.00362 256.124 1.99113C254.702 1.96496 253.279 1.98697 251.855 2.05714C251.41 2.06755 250.984 2.25408 250.662 2.57996C250.346 2.91458 250.169 3.36835 250.169 3.84148C250.169 4.31463 250.346 4.7684 250.662 5.10301C250.98 5.43766 251.409 5.62572 251.855 5.62582C253.013 5.56873 254.17 5.54374 255.328 5.55089C256.305 5.52968 257.283 5.572 258.255 5.67758L257.807 5.61333C258.107 5.65133 258.402 5.72864 258.684 5.84351L258.28 5.66508C258.43 5.73161 258.57 5.81604 258.701 5.91668L258.364 5.63832C258.492 5.7427 258.608 5.86246 258.709 5.99518L258.446 5.63832C258.551 5.78641 258.637 5.94692 258.706 6.11652L258.538 5.69007C258.62 5.91051 258.676 6.14055 258.706 6.37525L258.648 5.90239C258.695 6.46947 258.709 7.03921 258.69 7.60823C258.69 8.29697 258.69 8.98574 258.69 9.67448C258.69 11.1864 258.677 12.6984 258.651 14.2103C258.637 15.1435 259.437 16.0374 260.337 15.9946C260.782 15.9863 261.207 15.7958 261.521 15.4629C261.837 15.13 262.016 14.6809 262.025 14.2103L262.022 14.2192Z" fill="white"/>
<path d="M235.953 22.129L242.437 27.534C242.696 27.8047 243.019 28.0006 243.373 28.1023C243.648 28.1946 243.942 28.2086 244.222 28.1429C244.542 28.1012 244.848 27.9837 245.117 27.7997C245.386 27.6155 245.61 27.3696 245.773 27.0808C247.795 23.6829 249.814 20.2855 251.833 16.8888L253.555 13.9943C253.838 13.4771 253.914 12.865 253.769 12.2895C253.657 11.8698 253.431 11.4937 253.115 11.2079C252.799 10.9222 252.412 10.7396 251.997 10.6829C251.583 10.6262 251.162 10.698 250.787 10.8893C250.411 11.0806 250.098 11.3829 249.886 11.7583L243.827 21.9556L242.107 24.859L245.443 24.4111L238.956 18.9991C238.544 18.6057 238.013 18.3763 237.456 18.3512C236.893 18.355 236.354 18.5875 235.953 18.9991C235.557 19.4148 235.333 19.9773 235.332 20.5641C235.354 21.1129 235.523 21.7696 235.953 22.129Z" fill="url(#paint1_linear_1601_242)"/>
<defs>
<linearGradient id="paint0_linear_1601_242" x1="234.014" y1="24.4813" x2="248.859" y2="18.6081" gradientUnits="userSpaceOnUse">
<stop stop-color="#2025ED"/>
<stop offset="1" stop-color="#DF3387"/>
</linearGradient>
<linearGradient id="paint1_linear_1601_242" x1="234.014" y1="24.4813" x2="248.859" y2="18.6081" gradientUnits="userSpaceOnUse">
<stop offset="0.520833" stop-color="#6ACAAE"/>
<stop offset="1" stop-color="#52AD77"/>
</linearGradient>
</defs>
</svg>
