<svg width="1436" height="145" viewBox="0 0 1436 145" fill="none" xmlns="http://www.w3.org/2000/svg">
<path d="M41.8001 145C36.0667 145 30.0001 144.4 23.6001 143.2C17.2001 142 11.4667 139.933 6.40006 137C4.26672 135.667 2.73339 134.133 1.80006 132.4C1.00006 130.533 0.666723 128.733 0.800056 127C1.06672 125.133 1.73339 123.533 2.80006 122.2C4.00006 120.867 5.46672 120 7.20006 119.6C9.06672 119.2 11.0667 119.533 13.2001 120.6C18.5334 123.133 23.5334 124.933 28.2001 126C32.8667 126.933 37.4667 127.4 42.0001 127.4C48.4001 127.4 53.1334 126.333 56.2001 124.2C59.4001 121.933 61.0001 119 61.0001 115.4C61.0001 112.333 59.9334 110 57.8001 108.4C55.8001 106.667 52.7334 105.4 48.6001 104.6L28.6001 100.8C20.3334 99.1999 14.0001 96.1999 9.60006 91.7999C5.33339 87.2666 3.20006 81.4666 3.20006 74.3999C3.20006 67.9999 4.93339 62.4666 8.40006 57.7999C12.0001 53.1332 16.9334 49.5332 23.2001 46.9999C29.4667 44.4666 36.6667 43.1999 44.8001 43.1999C50.6667 43.1999 56.1334 43.8666 61.2001 45.1999C66.4001 46.3999 71.4001 48.3332 76.2001 50.9999C78.2001 52.0666 79.5334 53.4666 80.2001 55.1999C81.0001 56.9332 81.2001 58.7332 80.8001 60.5999C80.4001 62.3332 79.6001 63.9332 78.4001 65.3999C77.2001 66.7332 75.6667 67.5999 73.8001 67.9999C72.0667 68.2666 70.0667 67.8666 67.8001 66.7999C63.6667 64.6666 59.6667 63.1332 55.8001 62.1999C52.0667 61.2666 48.4667 60.7999 45.0001 60.7999C38.4667 60.7999 33.6001 61.9332 30.4001 64.1999C27.3334 66.4666 25.8001 69.4666 25.8001 73.1999C25.8001 75.9999 26.7334 78.3332 28.6001 80.1999C30.4667 82.0666 33.3334 83.3332 37.2001 83.9999L57.2001 87.7999C65.8667 89.3999 72.4001 92.3332 76.8001 96.5999C81.3334 100.867 83.6001 106.6 83.6001 113.8C83.6001 123.533 79.8001 131.2 72.2001 136.8C64.6001 142.267 54.4667 145 41.8001 145Z" fill="black"/>
<path d="M158.856 145C148.59 145 139.656 142.933 132.056 138.8C124.456 134.533 118.59 128.533 114.456 120.8C110.323 113.067 108.256 104 108.256 93.5999C108.256 85.7332 109.39 78.7332 111.656 72.5999C114.056 66.3332 117.456 61.0666 121.856 56.7999C126.256 52.3999 131.59 49.0666 137.856 46.7999C144.123 44.3999 151.123 43.1999 158.856 43.1999C163.256 43.1999 167.99 43.7999 173.056 44.9999C178.256 46.1999 183.123 48.1999 187.656 50.9999C189.79 52.3332 191.19 53.9332 191.856 55.7999C192.523 57.6666 192.656 59.5999 192.256 61.5999C191.856 63.4666 190.99 65.1332 189.656 66.5999C188.456 67.9332 186.923 68.7999 185.056 69.1999C183.19 69.4666 181.123 68.9999 178.856 67.7999C175.923 66.0666 172.923 64.7999 169.856 63.9999C166.79 63.0666 163.856 62.5999 161.056 62.5999C156.656 62.5999 152.79 63.3332 149.456 64.7999C146.123 66.1332 143.256 68.1332 140.856 70.7999C138.59 73.3332 136.856 76.5332 135.656 80.3999C134.456 84.2666 133.856 88.7332 133.856 93.7999C133.856 103.667 136.19 111.467 140.856 117.2C145.656 122.8 152.39 125.6 161.056 125.6C163.856 125.6 166.723 125.2 169.656 124.4C172.723 123.6 175.79 122.333 178.856 120.6C181.123 119.4 183.123 119 184.856 119.4C186.723 119.8 188.256 120.733 189.456 122.2C190.656 123.533 191.39 125.2 191.656 127.2C191.923 129.067 191.656 130.933 190.856 132.8C190.19 134.667 188.856 136.2 186.856 137.4C182.456 140.067 177.79 142 172.856 143.2C167.923 144.4 163.256 145 158.856 145Z" fill="black"/>
<path d="M230.792 144.6C226.659 144.6 223.459 143.533 221.192 141.4C219.059 139.133 217.992 135.933 217.992 131.8V56.1999C217.992 52.0666 219.059 48.9332 221.192 46.7999C223.326 44.6666 226.326 43.5999 230.192 43.5999C234.059 43.5999 237.059 44.6666 239.192 46.7999C241.326 48.9332 242.392 52.0666 242.392 56.1999V68.7999H240.392C242.259 60.7999 245.926 54.7332 251.392 50.5999C256.859 46.4666 264.126 43.9999 273.192 43.1999C275.992 42.9332 278.192 43.6666 279.792 45.3999C281.526 46.9999 282.526 49.5332 282.792 52.9999C283.059 56.3332 282.259 59.0666 280.392 61.1999C278.659 63.1999 275.992 64.3999 272.392 64.7999L267.992 65.1999C259.859 65.9999 253.726 68.5332 249.592 72.7999C245.459 76.9332 243.392 82.7999 243.392 90.3999V131.8C243.392 135.933 242.326 139.133 240.192 141.4C238.059 143.533 234.926 144.6 230.792 144.6Z" fill="black"/>
<path d="M352.95 145C341.883 145 332.35 142.933 324.35 138.8C316.35 134.667 310.15 128.8 305.75 121.2C301.483 113.6 299.35 104.6 299.35 94.1999C299.35 84.0666 301.417 75.1999 305.55 67.5999C309.817 59.9999 315.617 54.0666 322.95 49.7999C330.417 45.3999 338.883 43.1999 348.35 43.1999C355.283 43.1999 361.483 44.3332 366.95 46.5999C372.55 48.8666 377.283 52.1332 381.15 56.3999C385.15 60.6666 388.15 65.8666 390.15 71.9999C392.283 77.9999 393.35 84.7999 393.35 92.3999C393.35 94.7999 392.483 96.6666 390.75 97.9999C389.15 99.1999 386.817 99.7999 383.75 99.7999H319.55V85.3999H375.75L372.55 88.3999C372.55 82.2666 371.617 77.1332 369.75 72.9999C368.017 68.8666 365.417 65.7332 361.95 63.5999C358.617 61.3332 354.417 60.1999 349.35 60.1999C343.75 60.1999 338.95 61.5332 334.95 64.1999C331.083 66.7332 328.083 70.3999 325.95 75.1999C323.95 79.8666 322.95 85.4666 322.95 91.9999V93.3999C322.95 104.333 325.483 112.533 330.55 118C335.75 123.333 343.35 126 353.35 126C356.817 126 360.683 125.6 364.95 124.8C369.35 123.867 373.483 122.333 377.35 120.2C380.15 118.6 382.617 117.933 384.75 118.2C386.883 118.333 388.55 119.067 389.75 120.4C391.083 121.733 391.883 123.4 392.15 125.4C392.417 127.267 392.017 129.2 390.95 131.2C390.017 133.2 388.35 134.933 385.95 136.4C381.283 139.333 375.883 141.533 369.75 143C363.75 144.333 358.15 145 352.95 145Z" fill="black"/>
<path d="M471.349 145C460.282 145 450.749 142.933 442.749 138.8C434.749 134.667 428.548 128.8 424.148 121.2C419.882 113.6 417.749 104.6 417.749 94.1999C417.749 84.0666 419.815 75.1999 423.948 67.5999C428.215 59.9999 434.015 54.0666 441.348 49.7999C448.815 45.3999 457.282 43.1999 466.749 43.1999C473.682 43.1999 479.882 44.3332 485.349 46.5999C490.949 48.8666 495.682 52.1332 499.548 56.3999C503.548 60.6666 506.548 65.8666 508.548 71.9999C510.682 77.9999 511.749 84.7999 511.749 92.3999C511.749 94.7999 510.882 96.6666 509.148 97.9999C507.548 99.1999 505.215 99.7999 502.148 99.7999H437.948V85.3999H494.148L490.948 88.3999C490.948 82.2666 490.015 77.1332 488.148 72.9999C486.415 68.8666 483.815 65.7332 480.348 63.5999C477.015 61.3332 472.815 60.1999 467.749 60.1999C462.149 60.1999 457.348 61.5332 453.348 64.1999C449.482 66.7332 446.482 70.3999 444.348 75.1999C442.348 79.8666 441.348 85.4666 441.348 91.9999V93.3999C441.348 104.333 443.882 112.533 448.948 118C454.148 123.333 461.749 126 471.749 126C475.215 126 479.082 125.6 483.349 124.8C487.749 123.867 491.882 122.333 495.749 120.2C498.549 118.6 501.015 117.933 503.148 118.2C505.282 118.333 506.949 119.067 508.148 120.4C509.482 121.733 510.282 123.4 510.548 125.4C510.815 127.267 510.415 129.2 509.349 131.2C508.415 133.2 506.749 134.933 504.349 136.4C499.682 139.333 494.282 141.533 488.148 143C482.149 144.333 476.549 145 471.349 145Z" fill="black"/>
<path d="M553.947 144.6C549.947 144.6 546.88 143.533 544.747 141.4C542.614 139.133 541.547 135.933 541.547 131.8V56.1999C541.547 52.0666 542.614 48.9332 544.747 46.7999C546.88 44.6666 549.88 43.5999 553.747 43.5999C557.614 43.5999 560.614 44.6666 562.747 46.7999C564.88 48.9332 565.947 52.0666 565.947 56.1999V69.7999L563.747 64.7999C566.68 57.7332 571.214 52.3999 577.347 48.7999C583.614 45.0666 590.68 43.1999 598.547 43.1999C606.414 43.1999 612.88 44.6666 617.947 47.5999C623.014 50.5332 626.814 54.9999 629.347 60.9999C631.88 66.8666 633.147 74.3332 633.147 83.3999V131.8C633.147 135.933 632.08 139.133 629.947 141.4C627.814 143.533 624.747 144.6 620.747 144.6C616.747 144.6 613.614 143.533 611.347 141.4C609.214 139.133 608.147 135.933 608.147 131.8V84.5999C608.147 76.9999 606.68 71.4666 603.747 67.9999C600.947 64.5332 596.547 62.7999 590.547 62.7999C583.214 62.7999 577.347 65.1332 572.947 69.7999C568.68 74.3332 566.547 80.3999 566.547 87.9999V131.8C566.547 140.333 562.347 144.6 553.947 144.6Z" fill="black"/>
<path d="M704.339 145C698.606 145 692.539 144.4 686.139 143.2C679.739 142 674.006 139.933 668.939 137C666.806 135.667 665.272 134.133 664.339 132.4C663.539 130.533 663.206 128.733 663.339 127C663.606 125.133 664.272 123.533 665.339 122.2C666.539 120.867 668.006 120 669.739 119.6C671.606 119.2 673.606 119.533 675.739 120.6C681.072 123.133 686.072 124.933 690.739 126C695.406 126.933 700.006 127.4 704.539 127.4C710.939 127.4 715.672 126.333 718.739 124.2C721.939 121.933 723.539 119 723.539 115.4C723.539 112.333 722.472 110 720.339 108.4C718.339 106.667 715.272 105.4 711.139 104.6L691.139 100.8C682.872 99.1999 676.539 96.1999 672.139 91.7999C667.872 87.2666 665.739 81.4666 665.739 74.3999C665.739 67.9999 667.472 62.4666 670.939 57.7999C674.539 53.1332 679.472 49.5332 685.739 46.9999C692.006 44.4666 699.206 43.1999 707.339 43.1999C713.206 43.1999 718.672 43.8666 723.739 45.1999C728.939 46.3999 733.939 48.3332 738.739 50.9999C740.739 52.0666 742.072 53.4666 742.739 55.1999C743.539 56.9332 743.739 58.7332 743.339 60.5999C742.939 62.3332 742.139 63.9332 740.939 65.3999C739.739 66.7332 738.206 67.5999 736.339 67.9999C734.606 68.2666 732.606 67.8666 730.339 66.7999C726.206 64.6666 722.206 63.1332 718.339 62.1999C714.606 61.2666 711.006 60.7999 707.539 60.7999C701.006 60.7999 696.139 61.9332 692.939 64.1999C689.872 66.4666 688.339 69.4666 688.339 73.1999C688.339 75.9999 689.272 78.3332 691.139 80.1999C693.006 82.0666 695.872 83.3332 699.739 83.9999L719.739 87.7999C728.406 89.3999 734.939 92.3332 739.339 96.5999C743.872 100.867 746.139 106.6 746.139 113.8C746.139 123.533 742.339 131.2 734.739 136.8C727.139 142.267 717.006 145 704.339 145Z" fill="black"/>
<path d="M788.595 144.6C784.595 144.6 781.529 143.533 779.395 141.4C777.262 139.133 776.195 135.933 776.195 131.8V12.9999C776.195 8.86657 777.262 5.73324 779.395 3.59991C781.529 1.46657 784.595 0.399902 788.595 0.399902C792.595 0.399902 795.662 1.46657 797.795 3.59991C800.062 5.73324 801.195 8.86657 801.195 12.9999V64.7999H798.395C801.329 57.7332 805.862 52.3999 811.995 48.7999C818.262 45.0666 825.329 43.1999 833.195 43.1999C841.062 43.1999 847.529 44.6666 852.595 47.5999C857.662 50.5332 861.462 54.9999 863.995 60.9999C866.529 66.8666 867.795 74.3332 867.795 83.3999V131.8C867.795 135.933 866.729 139.133 864.595 141.4C862.462 143.533 859.395 144.6 855.395 144.6C851.395 144.6 848.262 143.533 845.995 141.4C843.862 139.133 842.795 135.933 842.795 131.8V84.5999C842.795 76.9999 841.329 71.4666 838.395 67.9999C835.595 64.5332 831.195 62.7999 825.195 62.7999C817.862 62.7999 811.995 65.1332 807.595 69.7999C803.329 74.3332 801.195 80.3999 801.195 87.9999V131.8C801.195 140.333 796.995 144.6 788.595 144.6Z" fill="black"/>
<path d="M947.788 145C937.654 145 928.854 142.933 921.388 138.8C913.921 134.667 908.121 128.8 903.988 121.2C899.854 113.467 897.788 104.4 897.788 93.9999C897.788 86.1332 898.921 79.1332 901.188 72.9999C903.588 66.7332 906.988 61.3999 911.388 56.9999C915.788 52.4666 921.054 49.0666 927.188 46.7999C933.321 44.3999 940.188 43.1999 947.788 43.1999C957.921 43.1999 966.721 45.2666 974.188 49.3999C981.654 53.5332 987.454 59.3999 991.588 66.9999C995.721 74.5999 997.788 83.5999 997.788 93.9999C997.788 101.867 996.588 108.933 994.188 115.2C991.921 121.467 988.588 126.867 984.188 131.4C979.788 135.8 974.521 139.2 968.388 141.6C962.254 143.867 955.388 145 947.788 145ZM947.788 126C952.721 126 957.054 124.8 960.788 122.4C964.521 120 967.388 116.467 969.388 111.8C971.521 107 972.588 101.067 972.588 93.9999C972.588 83.3332 970.321 75.3999 965.788 70.1999C961.254 64.8666 955.254 62.1999 947.788 62.1999C942.854 62.1999 938.521 63.3999 934.788 65.7999C931.054 68.0666 928.121 71.5999 925.988 76.3999C923.988 81.0666 922.988 86.9332 922.988 93.9999C922.988 104.533 925.254 112.533 929.788 118C934.321 123.333 940.321 126 947.788 126Z" fill="black"/>
<path d="M1072.25 145C1063.58 145 1056.31 143.533 1050.45 140.6C1044.71 137.667 1040.45 133.4 1037.65 127.8C1034.85 122.067 1033.45 115 1033.45 106.6V63.9999H1023.05C1019.85 63.9999 1017.38 63.1999 1015.65 61.5999C1013.91 59.8666 1013.05 57.5332 1013.05 54.5999C1013.05 51.5332 1013.91 49.1999 1015.65 47.5999C1017.38 45.9999 1019.85 45.1999 1023.05 45.1999H1033.45V26.9999C1033.45 22.8666 1034.51 19.7332 1036.65 17.5999C1038.91 15.4666 1042.05 14.3999 1046.05 14.3999C1050.05 14.3999 1053.11 15.4666 1055.25 17.5999C1057.38 19.7332 1058.45 22.8666 1058.45 26.9999V45.1999H1079.65C1082.85 45.1999 1085.31 45.9999 1087.05 47.5999C1088.78 49.1999 1089.65 51.5332 1089.65 54.5999C1089.65 57.5332 1088.78 59.8666 1087.05 61.5999C1085.31 63.1999 1082.85 63.9999 1079.65 63.9999H1058.45V105.2C1058.45 111.6 1059.85 116.4 1062.65 119.6C1065.45 122.8 1069.98 124.4 1076.25 124.4C1078.51 124.4 1080.51 124.2 1082.25 123.8C1083.98 123.4 1085.51 123.133 1086.85 123C1088.45 122.867 1089.78 123.4 1090.85 124.6C1091.91 125.667 1092.45 127.933 1092.45 131.4C1092.45 134.067 1091.98 136.467 1091.05 138.6C1090.25 140.6 1088.71 142 1086.45 142.8C1084.71 143.333 1082.45 143.8 1079.65 144.2C1076.85 144.733 1074.38 145 1072.25 145Z" fill="black"/>
<path d="M1173.14 145C1164.88 145 1157.61 142.933 1151.34 138.8C1145.21 134.667 1141.14 129.133 1139.14 122.2L1141.34 117.2V131.8C1141.34 135.933 1140.28 139.133 1138.14 141.4C1136.01 143.533 1133.01 144.6 1129.14 144.6C1125.14 144.6 1122.08 143.533 1119.94 141.4C1117.81 139.133 1116.74 135.933 1116.74 131.8V12.9999C1116.74 8.86657 1117.81 5.73324 1119.94 3.59991C1122.08 1.46657 1125.14 0.399902 1129.14 0.399902C1133.14 0.399902 1136.21 1.46657 1138.34 3.59991C1140.61 5.73324 1141.74 8.86657 1141.74 12.9999V64.9999H1139.34C1141.48 58.4666 1145.61 53.1999 1151.74 49.1999C1157.88 45.1999 1165.01 43.1999 1173.14 43.1999C1181.81 43.1999 1189.34 45.2666 1195.74 49.3999C1202.14 53.5332 1207.14 59.3999 1210.74 66.9999C1214.34 74.4666 1216.14 83.4666 1216.14 93.9999C1216.14 104.4 1214.34 113.467 1210.74 121.2C1207.14 128.8 1202.08 134.667 1195.54 138.8C1189.14 142.933 1181.68 145 1173.14 145ZM1166.14 126C1171.08 126 1175.41 124.8 1179.14 122.4C1182.88 120 1185.74 116.467 1187.74 111.8C1189.88 107 1190.94 101.067 1190.94 93.9999C1190.94 83.3332 1188.68 75.3999 1184.14 70.1999C1179.61 64.8666 1173.61 62.1999 1166.14 62.1999C1161.21 62.1999 1156.88 63.3999 1153.14 65.7999C1149.41 68.0666 1146.48 71.5999 1144.34 76.3999C1142.34 81.0666 1141.34 86.9332 1141.34 93.9999C1141.34 104.533 1143.61 112.533 1148.14 118C1152.68 123.333 1158.68 126 1166.14 126Z" fill="#52AD77"/>
<path d="M1291.26 145C1281.13 145 1272.33 142.933 1264.86 138.8C1257.4 134.667 1251.6 128.8 1247.46 121.2C1243.33 113.467 1241.26 104.4 1241.26 93.9999C1241.26 86.1332 1242.4 79.1332 1244.66 72.9999C1247.06 66.7332 1250.46 61.3999 1254.86 56.9999C1259.26 52.4666 1264.53 49.0666 1270.66 46.7999C1276.8 44.3999 1283.66 43.1999 1291.26 43.1999C1301.4 43.1999 1310.2 45.2666 1317.66 49.3999C1325.13 53.5332 1330.93 59.3999 1335.06 66.9999C1339.2 74.5999 1341.26 83.5999 1341.26 93.9999C1341.26 101.867 1340.06 108.933 1337.66 115.2C1335.4 121.467 1332.06 126.867 1327.66 131.4C1323.26 135.8 1318 139.2 1311.86 141.6C1305.73 143.867 1298.86 145 1291.26 145ZM1291.26 126C1296.2 126 1300.53 124.8 1304.26 122.4C1308 120 1310.86 116.467 1312.86 111.8C1315 107 1316.06 101.067 1316.06 93.9999C1316.06 83.3332 1313.8 75.3999 1309.26 70.1999C1304.73 64.8666 1298.73 62.1999 1291.26 62.1999C1286.33 62.1999 1282 63.3999 1278.26 65.7999C1274.53 68.0666 1271.6 71.5999 1269.46 76.3999C1267.46 81.0666 1266.46 86.9332 1266.46 93.9999C1266.46 104.533 1268.73 112.533 1273.26 118C1277.8 123.333 1283.8 126 1291.26 126Z" fill="#52AD77"/>
<path d="M1415.72 145C1407.06 145 1399.79 143.533 1393.92 140.6C1388.19 137.667 1383.92 133.4 1381.12 127.8C1378.32 122.067 1376.92 115 1376.92 106.6V63.9999H1366.52C1363.32 63.9999 1360.86 63.1999 1359.12 61.5999C1357.39 59.8666 1356.52 57.5332 1356.52 54.5999C1356.52 51.5332 1357.39 49.1999 1359.12 47.5999C1360.86 45.9999 1363.32 45.1999 1366.52 45.1999H1376.92V26.9999C1376.92 22.8666 1377.99 19.7332 1380.12 17.5999C1382.39 15.4666 1385.52 14.3999 1389.52 14.3999C1393.52 14.3999 1396.59 15.4666 1398.72 17.5999C1400.86 19.7332 1401.92 22.8666 1401.92 26.9999V45.1999H1423.12C1426.32 45.1999 1428.79 45.9999 1430.52 47.5999C1432.26 49.1999 1433.12 51.5332 1433.12 54.5999C1433.12 57.5332 1432.26 59.8666 1430.52 61.5999C1428.79 63.1999 1426.32 63.9999 1423.12 63.9999H1401.92V105.2C1401.92 111.6 1403.32 116.4 1406.12 119.6C1408.92 122.8 1413.46 124.4 1419.72 124.4C1421.99 124.4 1423.99 124.2 1425.72 123.8C1427.46 123.4 1428.99 123.133 1430.32 123C1431.92 122.867 1433.26 123.4 1434.32 124.6C1435.39 125.667 1435.92 127.933 1435.92 131.4C1435.92 134.067 1435.46 136.467 1434.52 138.6C1433.72 140.6 1432.19 142 1429.92 142.8C1428.19 143.333 1425.92 143.8 1423.12 144.2C1420.32 144.733 1417.86 145 1415.72 145Z" fill="#52AD77"/>
</svg>
