<svg width="56" height="56" viewBox="0 0 64 64" fill="none" xmlns="http://www.w3.org/2000/svg" class=""><g stroke="#333333" stroke-width="3" stroke-linecap="round"><path d="M8 24 L8 16 L16 16"></path><path d="M24 16 L32 16 L32 24"></path><path d="M8 40 L8 48 L16 48"></path><path d="M32 48 L32 40 L24 40"></path></g><g stroke="#333333" stroke-width="3" stroke-linecap="round"><path d="M32 24 L32 16 L40 16"></path><path d="M48 16 L54 16 L54 20"></path><path d="M54 28 L54 36"></path><path d="M54 44 L54 48 L48 48"></path><path d="M40 48 L32 48 L32 40"></path></g><g fill="#e5e5e5"><circle cx="14" cy="22" r="1.5"></circle><circle cx="20" cy="22" r="1.5"></circle><circle cx="26" cy="22" r="1.5"></circle><circle cx="14" cy="28" r="1.5"></circle><circle cx="20" cy="28" r="1.5"></circle><circle cx="26" cy="28" r="1.5"></circle><circle cx="14" cy="34" r="1.5"></circle><circle cx="20" cy="34" r="1.5"></circle><circle cx="26" cy="34" r="1.5"></circle><circle cx="14" cy="40" r="1.5"></circle><circle cx="20" cy="40" r="1.5"></circle><circle cx="26" cy="40" r="1.5"></circle></g><g fill="#e5e5e5"><circle cx="38" cy="22" r="1.5"></circle><circle cx="44" cy="22" r="1.5"></circle><circle cx="50" cy="22" r="1.5"></circle><circle cx="38" cy="28" r="1.5"></circle><circle cx="44" cy="28" r="1.5"></circle><circle cx="50" cy="28" r="1.5"></circle><circle cx="38" cy="34" r="1.5"></circle><circle cx="44" cy="34" r="1.5"></circle><circle cx="50" cy="34" r="1.5"></circle><circle cx="38" cy="40" r="1.5"></circle><circle cx="44" cy="40" r="1.5"></circle><circle cx="50" cy="40" r="1.5"></circle></g><circle cx="20" cy="28" r="2" fill="#22c55e"></circle><circle cx="44" cy="34" r="2" fill="#ef4444"></circle><g transform="translate(32, 32)"><circle cx="0" cy="0" r="6" fill="white" stroke="#e5e5e5" stroke-width="1"></circle><path d="M-2 -1 L0 -1 L0 -2 L2 0 L0 2 L0 1 L-2 1 Z" fill="#666666"></path></g></svg>