<svg width="10" height="10" viewBox="0 0 10 10" fill="none" xmlns="http://www.w3.org/2000/svg">
<path d="M4.82928 0C2.16641 0 0 2.243 0 5C0 7.757 2.16641 10 4.82928 10C7.49214 10 9.65856 7.757 9.65856 5C9.65856 4.437 9.56389 3.8971 9.39728 3.3916L8.61536 4.20117C8.66606 4.45917 8.6927 4.7265 8.6927 5C8.6927 7.2055 6.95947 9 4.82928 9C2.69908 9 0.965855 7.2055 0.965855 5C0.965855 2.7945 2.69908 1 4.82928 1C5.6179 1 6.35143 1.24695 6.96378 1.66895L7.65516 0.953125C6.85929 0.356125 5.88447 0 4.82928 0ZM9.31711 0.646484L4.34635 5.79297L2.75608 4.14648L2.07319 4.85352L4.34635 7.20703L10 1.35352L9.31711 0.646484Z" fill="#bb0"/>
</svg>
