<?xml version="1.0" encoding="UTF-8" standalone="no"?>
<svg
   xmlns:dc="http://purl.org/dc/elements/1.1/"
   xmlns:cc="http://creativecommons.org/ns#"
   xmlns:rdf="http://www.w3.org/1999/02/22-rdf-syntax-ns#"
   xmlns:svg="http://www.w3.org/2000/svg"
   xmlns="http://www.w3.org/2000/svg"
   id="svg211"
   version="1.1"
   viewBox="0 0 11.49292 11.209466"
   height="11.209466mm"
   width="11.49292mm">
  <defs
     id="defs205" />
  <metadata
     id="metadata208">
    <rdf:RDF>
      <cc:Work
         rdf:about="">
        <dc:format>image/svg+xml</dc:format>
        <dc:type
           rdf:resource="http://purl.org/dc/dcmitype/StillImage" />
        <dc:title></dc:title>
      </cc:Work>
    </rdf:RDF>
  </metadata>
  <g
     transform="translate(-100.08676,-143.2286)"
     id="layer1">
    <path
       id="path106"
       style="fill:#ffffff;fill-opacity:1;fill-rule:evenodd;stroke:none;stroke-width:0.03527778"
       d="m 105.8328,143.2286 c -3.17288,0 -5.74604,2.57281 -5.74604,5.74675 0,2.53894 1.64641,4.69265 3.92994,5.45253 0.28752,0.0529 0.39229,-0.12453 0.39229,-0.27693 0,-0.13652 -0.005,-0.49777 -0.008,-0.97719 -1.59843,0.34713 -1.93569,-0.77047 -1.93569,-0.77047 -0.26141,-0.66393 -0.63817,-0.84067 -0.63817,-0.84067 -0.52176,-0.3563 0.0395,-0.34925 0.0395,-0.34925 0.57679,0.0406 0.88018,0.59232 0.88018,0.59232 0.51258,0.87806 1.34514,0.62441 1.67252,0.4773 0.0522,-0.37112 0.20073,-0.62441 0.36477,-0.76799 -1.276,-0.14499 -2.61761,-0.63818 -2.61761,-2.84022 0,-0.62724 0.22401,-1.14053 0.59161,-1.54199 -0.0593,-0.14534 -0.25647,-0.7299 0.0564,-1.52082 0,0 0.48225,-0.15452 1.58009,0.58914 0.45826,-0.12771 0.95003,-0.19121 1.43863,-0.19368 0.48825,0.002 0.97966,0.066 1.43863,0.19368 1.09714,-0.74366 1.57868,-0.58914 1.57868,-0.58914 0.31362,0.79092 0.11642,1.37548 0.0575,1.52082 0.3683,0.40146 0.59055,0.91475 0.59055,1.54199 0,2.20769 -1.34373,2.69346 -2.62361,2.83563 0.20603,0.17745 0.38982,0.52811 0.38982,1.06398 0,0.76835 -0.007,1.38818 -0.007,1.57656 0,0.15381 0.10372,0.33267 0.39511,0.27658 2.28177,-0.76165 3.92678,-2.91394 3.92678,-5.45218 0,-3.17394 -2.57316,-5.74675 -5.74711,-5.74675" />
  </g>
</svg>
